<?xml version="1.0" encoding="UTF-8"?>
<svg version="1.1" xmlns="http://www.w3.org/2000/svg" width="16" height="16">
<path d="M0 0 C5.28 0 10.56 0 16 0 C16 5.28 16 10.56 16 16 C10.72 16 5.44 16 0 16 C0 10.72 0 5.44 0 0 Z " fill="#FBA85C" transform="translate(0,0)"/>
<path d="M0 0 C5.28 0 10.56 0 16 0 C16 0.66 16 1.32 16 2 C12.7 2.66 9.4 3.32 6 4 C6 5.65 6 7.3 6 9 C5.34 9 4.68 9 4 9 C4 9.66 4 10.32 4 11 C2.02 11.99 2.02 11.99 0 13 C0 8.71 0 4.42 0 0 Z " fill="#FECB0A" transform="translate(0,0)"/>
<path d="M0 0 C1.65 0.33 3.3 0.66 5 1 C4.67 1.66 4.34 2.32 4 3 C3.01 2.67 2.02 2.34 1 2 C1 2.66 1 3.32 1 4 C2.32 4.33 3.64 4.66 5 5 C5 6.32 5 7.64 5 9 C3.35 9.33 1.7 9.66 0 10 C-0.33 9.01 -0.66 8.02 -1 7 C0.32 7.33 1.64 7.66 3 8 C3 7.34 3 6.68 3 6 C1.68 5.67 0.36 5.34 -1 5 C-0.67 3.35 -0.34 1.7 0 0 Z " fill="#FCEADE" transform="translate(6,3)"/>
<path d="M0 0 C0.99 0.33 1.98 0.66 3 1 C3 1.66 3 2.32 3 3 C1.68 2.67 0.36 2.34 -1 2 C-0.01 3.32 0.98 4.64 2 6 C1.67 6.66 1.34 7.32 1 8 C-1.31 8 -3.62 8 -6 8 C-5.6875 6.0625 -5.6875 6.0625 -5 4 C-4.01 3.67 -3.02 3.34 -2 3 C-2 2.34 -2 1.68 -2 1 C-1.34 0.67 -0.68 0.34 0 0 Z " fill="#F7926C" transform="translate(6,8)"/>
<path d="M0 0 C0.66 0 1.32 0 2 0 C2 2.31 2 4.62 2 7 C-0.97 7 -3.94 7 -7 7 C-6.67 6.01 -6.34 5.02 -6 4 C-4.66923011 3.65657551 -3.33568021 3.32380126 -2 3 C-1.34 2.01 -0.68 1.02 0 0 Z " fill="#D65AB5" transform="translate(14,9)"/>
<path d="M0 0 C0 4 0 4 -2 6.25 C-2.99 7.11625 -2.99 7.11625 -4 8 C-4.66 7.67 -5.32 7.34 -6 7 C-6 5.68 -6 4.36 -6 3 C-2.78571429 0 -2.78571429 0 0 0 Z " fill="#EA7E91" transform="translate(16,5)"/>
<path d="M0 0 C0.66 1.32 1.32 2.64 2 4 C1.34 4 0.68 4 0 4 C0 4.66 0 5.32 0 6 C-1.98 6.99 -1.98 6.99 -4 8 C-3.67 6.35 -3.34 4.7 -3 3 C-2.01 2.67 -1.02 2.34 0 2 C0 1.34 0 0.68 0 0 Z " fill="#FEB830" transform="translate(4,5)"/>
<path d="M0 0 C0.33 0 0.66 0 1 0 C1 1.98 1 3.96 1 6 C-0.98 6 -2.96 6 -5 6 C-3.35830472 3.97945196 -1.69088222 1.97956942 0 0 Z " fill="#C443DA" transform="translate(15,10)"/>
<path d="M0 0 C2.97 0 5.94 0 9 0 C9 0.33 9 0.66 9 1 C7.88625 1.2475 6.7725 1.495 5.625 1.75 C1.95384802 2.61005339 1.95384802 2.61005339 0.5625 5.125 C0.376875 5.74375 0.19125 6.3625 0 7 C0 4.69 0 2.38 0 0 Z " fill="#FDD601" transform="translate(0,0)"/>
<path d="M0 0 C0 0.66 0 1.32 0 2 C-2.95664519 3.4783226 -5.74229737 3.06032783 -9 3 C-4.5 0 -4.5 0 0 0 Z " fill="#FEBC2A" transform="translate(16,0)"/>
</svg>
