<?xml version="1.0" encoding="UTF-8"?>
<svg version="1.1" xmlns="http://www.w3.org/2000/svg" width="314" height="294">
<path d="M0 0 C1.55614313 -0.00257325 1.55614313 -0.00257325 3.14372349 -0.00519848 C6.59640104 -0.00951946 10.04903076 -0.00656394 13.50170898 -0.00341797 C15.96857725 -0.00464721 18.43544538 -0.00621665 20.90231323 -0.00810242 C28.24339863 -0.01166742 35.58445155 -0.00609878 42.92553091 0.00213575 C44.9934408 0.00438978 47.06135076 0.00636135 49.12926102 0.00824356 C66.05942851 0.02384355 82.9895278 0.05482376 99.91964436 0.09894848 C108.04548568 0.11995163 116.17130526 0.13563346 124.29716778 0.14627457 C136.45271356 0.16237772 148.60794634 0.19557855 160.76331615 0.26469803 C166.35040942 0.29638347 171.93725649 0.32052642 177.52444458 0.32440186 C182.73906048 0.32858751 187.9530156 0.35646734 193.16742325 0.40270042 C195.05678612 0.41555976 196.9462275 0.42019232 198.83562851 0.41558266 C214.07992184 0.38651217 226.83643412 3.15105884 238.36889648 13.93798828 C246.27293659 22.38596233 250.55678621 32.72114621 250.8449707 44.28344727 C250.86404606 44.98796839 250.88312141 45.69248951 250.90277481 46.41835976 C250.96344677 48.82061758 251.00870897 51.22286616 251.05249023 53.62548828 C251.07092861 54.4874777 251.08936699 55.34946712 251.10836411 56.23757744 C251.71546782 84.84211201 251.58565036 113.4625133 251.56387305 142.07203329 C251.5595439 148.41538846 251.56262467 154.75872363 251.56750023 161.10207754 C251.57210284 167.35218735 251.57264833 173.6022888 251.57006156 179.85239977 C251.56854005 183.53046568 251.56818635 187.20851838 251.57159805 190.88658333 C251.57837396 199.61713477 251.54981937 208.34657729 251.45692158 217.07676172 C251.44217587 218.47681472 251.42851094 219.87687941 251.4157896 221.27695227 C251.37491963 225.64644566 251.31122716 230.01466067 251.21781898 234.38335693 C251.17841845 236.40227101 251.15679527 238.42150794 251.13583565 240.44069767 C250.76762779 254.88057471 245.86230566 266.52831396 235.36499023 276.55908203 C230.94210358 280.1582732 226.0337133 282.94146994 220.43530273 284.12939453 C220.43530273 285.11939453 220.43530273 286.10939453 220.43530273 287.12939453 C219.48655273 287.08814453 218.53780273 287.04689453 217.56030273 287.00439453 C214.33285418 286.77965635 214.33285418 286.77965635 212.43530273 289.12939453 C212.10530273 288.79939453 211.77530273 288.46939453 211.43530273 288.12939453 C209.32849256 288.03031693 207.21829984 288.00307104 205.10916138 288.00241089 C204.10650091 288.0000709 204.10650091 288.0000709 203.08358467 287.99768364 C200.82726692 287.99367164 198.5710156 287.99686407 196.31469727 288 C194.70367391 287.99864602 193.09265087 287.99686611 191.48162842 287.99468994 C187.09318874 287.99011447 182.70477245 287.99190583 178.31633234 287.99506903 C173.73195487 287.99759291 169.14757945 287.99525493 164.5632019 287.99368286 C156.8608972 287.99186088 149.15860208 287.99426783 141.45629883 287.99902344 C132.54439371 288.00446226 123.63251148 288.00270628 114.72060692 287.99719703 C107.0798368 287.99266211 99.43907357 287.99201733 91.79830253 287.9946357 C87.23021753 287.99619688 82.6621433 287.99639666 78.09405899 287.99309921 C73.79808479 287.99021515 69.50214013 287.99220611 65.20616913 287.99799347 C63.62712274 287.99931835 62.04807388 287.99893154 60.46902847 287.9967308 C58.31778894 287.99400856 56.16664479 287.99741371 54.01541138 288.00241089 C52.81008318 288.00278791 51.60475498 288.00316494 50.36290169 288.00355339 C47.37206416 287.99758792 47.37206416 287.99758792 44.43530273 289.12939453 C42.76863607 288.7960612 41.1019694 288.46272786 39.43530273 288.12939453 C35.58110201 287.92574792 32.13824668 287.89507988 28.43530273 289.12939453 C27.09309889 288.8337973 25.75934958 288.49788991 24.43530273 288.12939453 C21.63363468 288.03406911 18.85776368 287.98930524 16.05639648 287.99658203 C15.24791763 287.99562531 14.43943878 287.99466858 13.60646057 287.99368286 C11.90105105 287.99300363 10.19563891 287.99483998 8.49023438 287.99902344 C5.87876596 288.00438229 3.26746899 287.99906619 0.65600586 287.99267578 C-1.00219765 287.99333647 -2.66040104 287.99461745 -4.31860352 287.99658203 C-5.09990128 287.9945578 -5.88119904 287.99253357 -6.68617249 287.990448 C-9.90783521 288.00440453 -12.48618735 288.10322456 -15.56469727 289.12939453 C-15.89469727 288.46939453 -16.22469727 287.80939453 -16.56469727 287.12939453 C-18.46003068 286.6641639 -18.46003068 286.6641639 -20.62719727 286.50439453 C-21.92657227 286.38064453 -23.22594727 286.25689453 -24.56469727 286.12939453 C-24.56469727 285.46939453 -24.56469727 284.80939453 -24.56469727 284.12939453 C-25.63977539 283.9534375 -25.63977539 283.9534375 -26.73657227 283.77392578 C-29.68148542 283.10277845 -32.0986207 282.130207 -34.81469727 280.81689453 C-36.12180664 280.20394531 -36.12180664 280.20394531 -37.45532227 279.57861328 C-39.56469727 278.12939453 -39.56469727 278.12939453 -40.21313477 276.04345703 C-40.32915039 275.41181641 -40.44516602 274.78017578 -40.56469727 274.12939453 C-41.34844727 273.69626953 -42.13219727 273.26314453 -42.93969727 272.81689453 C-45.87779676 270.92811629 -46.56244437 269.43510069 -47.74438477 266.21533203 C-49.02961716 262.94716965 -50.78587508 259.92489299 -52.47875977 256.85205078 C-55.75282724 248.64332765 -54.91147731 238.71706972 -55.12329102 229.98876953 C-55.14434843 229.15239708 -55.16540585 228.31602463 -55.18710136 227.45430756 C-55.86690143 199.42691366 -55.67821302 171.38151075 -55.63672483 143.34790373 C-55.62533315 135.51363031 -55.61999224 127.67935579 -55.61502087 119.84507608 C-55.60512642 104.43610779 -55.58878382 89.02715525 -55.56749058 73.61819839 C-55.56389807 70.41732434 -55.56264321 67.22022961 -55.63500977 64.02001953 C-55.83144689 50.94291984 -55.86054123 35.98239785 -49.06469727 24.44189453 C-47.22901095 21.29396121 -47.22901095 21.29396121 -45.59594727 18.03955078 C-41.14340854 9.79223474 -29.46696022 4.44534984 -20.96313477 1.67236328 C-14.00055479 0.09614404 -7.10220027 -0.01500914 0 0 Z " fill="#FEC70F" transform="translate(58.564697265625,2.87060546875)"/>
<path d="M0 0 C0 0.66 0 1.32 0 2 C0.99 2.33 1.98 2.66 3 3 C12.24373807 13.61635811 15 24.2055477 15 38 C2.46 38 -10.08 38 -23 38 C-24.32 34.37 -25.64 30.74 -27 27 C-32.93291137 20.61071083 -40.23152102 17.43318265 -48.953125 16.875 C-57.96653594 16.62287662 -67.08444856 17.73625915 -74 24 C-77.11041158 27.92443114 -78.33199077 31.62257761 -78.0625 36.625 C-77.25500335 41.22456426 -75.47955516 43.81657719 -72 47 C-61.63900373 53.33171994 -49.16557627 56.00232729 -37.5 58.9375 C-21.42990469 63.02528882 -6.33182129 67.96529781 5.1875 80.5 C8.23860284 83.81806491 8.23860284 83.81806491 12.2265625 85.58984375 C15.9879306 85.31513709 18.12010899 83.90241145 21 81.5625 C23.20509029 79.27899489 23.20509029 79.27899489 23 77 C25.475 76.505 25.475 76.505 28 76 C28.37125 74.576875 28.37125 74.576875 28.75 73.125 C30.21562128 69.46094681 30.68206889 69.61611405 34 68 C35.66458509 66.29242177 35.66458509 66.29242177 37.125 64.375 C38.6328125 62.4609375 38.6328125 62.4609375 40 61 C40.66 61 41.32 61 42 61 C42.66 60.34 43.32 59.68 44 59 C44.33 58.67 44.66 58.34 45 58 C45.9590625 57.01 45.9590625 57.01 46.9375 56 C49 54 49 54 51 53 C52.68816933 51.35511706 54.35353315 49.68662458 56 48 C57.66666667 46.33333333 59.33333333 44.66666667 61 43 C61.721875 42.154375 62.44375 41.30875 63.1875 40.4375 C66.52511821 37.54489755 68.66053508 37.25526264 73 37 C73.33 36.01 73.66 35.02 74 34 C74.66 33.67 75.32 33.34 76 33 C76.78375 32.13375 77.5675 31.2675 78.375 30.375 C79.24125 29.59125 80.1075 28.8075 81 28 C83.0625 28.3125 83.0625 28.3125 85 29 C87.06669397 28.09166275 87.06669397 28.09166275 89 27 C89.99 27 90.98 27 92 27 C92 24.69 92 22.38 92 20 C92.66 20 93.32 20 94 20 C94.66 19.01 95.32 18.02 96 17 C96.82853024 33.58174053 97.14973129 50.11788007 97.1328125 66.71875 C97.13348952 69.11885589 97.13446282 71.51896172 97.13571167 73.91906738 C97.13717222 78.91415062 97.13508921 83.90921577 97.13037109 88.90429688 C97.1258261 93.95378803 97.12579313 99.00324325 97.13037109 104.05273438 C97.1450997 120.36892043 97.12088185 136.68420365 97 153 C96.99350937 153.91583862 96.98701874 154.83167725 96.98033142 155.77526855 C96.94363002 160.46801927 96.88531494 165.15928935 96.78292465 169.85108948 C96.74420859 171.74488802 96.72212505 173.63900507 96.70095825 175.53308105 C96.30776514 189.37597911 90.94068617 200.86362211 80.9296875 210.4296875 C76.50680085 214.02887866 71.59841056 216.81207541 66 218 C66 218.99 66 219.98 66 221 C65.05125 220.95875 64.1025 220.9175 63.125 220.875 C59.89755144 220.65026182 59.89755144 220.65026182 58 223 C57.67 222.67 57.34 222.34 57 222 C54.89318983 221.9009224 52.7829971 221.87367651 50.67385864 221.87301636 C49.67119817 221.87067637 49.67119817 221.87067637 48.64828193 221.86828911 C46.39196419 221.86427711 44.13571286 221.86746954 41.87939453 221.87060547 C40.26837118 221.86925149 38.65734814 221.86747158 37.04632568 221.86529541 C32.657886 221.86071994 28.26946972 221.86251129 23.88102961 221.8656745 C19.29665213 221.86819838 14.71227672 221.8658604 10.12789917 221.86428833 C2.42559447 221.86246635 -5.27670066 221.8648733 -12.97900391 221.86962891 C-21.89090902 221.87506772 -30.80279125 221.87331175 -39.71469581 221.8678025 C-47.35546594 221.86326758 -54.99622917 221.8626228 -62.6370002 221.86524117 C-67.2050852 221.86680235 -71.77315943 221.86700212 -76.34124374 221.86370468 C-80.63721795 221.86082061 -84.9331626 221.86281158 -89.22913361 221.86859894 C-90.80817999 221.86992381 -92.38722885 221.86953701 -93.96627426 221.86733627 C-96.1175138 221.86461402 -98.26865794 221.86801918 -100.41989136 221.87301636 C-101.62521955 221.87339338 -102.83054775 221.87377041 -104.07240105 221.87415886 C-107.06323857 221.86819339 -107.06323857 221.86819339 -110 223 C-111.66666667 222.66666667 -113.33333333 222.33333333 -115 222 C-118.85420072 221.79635339 -122.29705605 221.76568535 -126 223 C-127.34220385 222.70440277 -128.67595316 222.36849538 -130 222 C-132.80166806 221.90467458 -135.57753905 221.8599107 -138.37890625 221.8671875 C-139.1873851 221.86623077 -139.99586395 221.86527405 -140.82884216 221.86428833 C-142.53425169 221.8636091 -144.23966383 221.86544544 -145.94506836 221.86962891 C-148.55653677 221.87498776 -151.16783375 221.86967165 -153.77929688 221.86328125 C-155.43750038 221.86394194 -157.09570378 221.86522292 -158.75390625 221.8671875 C-159.53520401 221.86516327 -160.31650177 221.86313904 -161.12147522 221.86105347 C-164.34313795 221.87501 -166.92149008 221.97383003 -170 223 C-170.33 222.34 -170.66 221.68 -171 221 C-172.32 221 -173.64 221 -175 221 C-175.33 220.01 -175.66 219.02 -176 218 C-173.37801226 215.84622436 -171.35595828 214.59927826 -168 214 C-168 214.66 -168 215.32 -168 216 C-165.84166757 213.91866815 -165.84166757 213.91866815 -163.625 211 C-160.17647059 207.05882353 -160.17647059 207.05882353 -157 206 C-156.01 206 -155.02 206 -154 206 C-152.65080468 204.34614767 -151.31866272 202.678298 -150 201 C-146.94024557 198.99203616 -145.85514114 199 -142 199 C-141.67 197.68 -141.34 196.36 -141 195 C-140.34 195 -139.68 195 -139 195 C-139 195.99 -139 196.98 -139 198 C-138.34 198 -137.68 198 -137 198 C-136.67 195.69 -136.34 193.38 -136 191 C-134.68 191.33 -133.36 191.66 -132 192 C-132 191.34 -132 190.68 -132 190 C-128.53846154 187 -128.53846154 187 -126 187 C-126.33 186.01 -126.66 185.02 -127 184 C-126.360625 183.87625 -125.72125 183.7525 -125.0625 183.625 C-124.381875 183.41875 -123.70125 183.2125 -123 183 C-122.34145573 181.68291146 -121.71522568 180.34908726 -121.125 179 C-120 177 -120 177 -117 175 C-116.0409375 174.195625 -116.0409375 174.195625 -115.0625 173.375 C-113 172 -113 172 -109 172 C-108.67 171.34 -108.34 170.68 -108 170 C-106.01276732 169.29618843 -104.01222047 168.6288189 -102 168 C-100.7018576 166.8509288 -100.7018576 166.8509288 -100 164 C-98.35 163.67 -96.7 163.34 -95 163 C-95 162.34 -95 161.68 -95 161 C-97.01643081 159.61434366 -97.01643081 159.61434366 -99.5625 158.25 C-104.21625076 155.5491034 -108.11051244 152.7203794 -112 149 C-112 148.34 -112 147.68 -112 147 C-112.66 147 -113.32 147 -114 147 C-122.61543672 136.79304172 -125 125.01934195 -125 112 C-112.46 112 -99.92 112 -87 112 C-86.01 115.3 -85.02 118.6 -84 122 C-81.04404865 128.26661685 -76.24193282 130.5859397 -70 133 C-65.17338635 134.35828597 -60.22729581 134.22054855 -55.25 134.25 C-54.3940625 134.270625 -53.538125 134.29125 -52.65625 134.3125 C-44.49455575 134.36196481 -37.86672579 132.44317551 -31 128 C-30.01 127.67 -29.02 127.34 -28 127 C-26.83046584 124.57616923 -26.83046584 124.57616923 -26 122 C-25.67 121.34 -25.34 120.68 -25 120 C-24.41427337 114.48580216 -23.8737777 108.8152216 -27 104 C-32.11159307 98.35562058 -39.3781771 96.36665404 -46.5625 94.625 C-47.36896973 94.42003906 -48.17543945 94.21507812 -49.00634766 94.00390625 C-51.66885373 93.32752136 -54.33414491 92.66305445 -57 92 C-101.4138122 80.90585412 -101.4138122 80.90585412 -112.75 64.1875 C-117.30130182 56.25385384 -118.53824911 48.1654474 -118.4375 39.125 C-118.42920166 38.16045898 -118.42090332 37.19591797 -118.41235352 36.20214844 C-118.08303446 22.29339907 -113.08658368 12.38061613 -103.6875 2.25 C-76.71039233 -23.17532714 -28.7178854 -19.14525693 0 0 Z " fill="#CD51BF" transform="translate(213,69)"/>
<path d="M0 0 C0 0.66 0 1.32 0 2 C1.485 2.495 1.485 2.495 3 3 C12.24373807 13.61635811 15 24.2055477 15 38 C2.46 38 -10.08 38 -23 38 C-24.32 34.37 -25.64 30.74 -27 27 C-32.93291137 20.61071083 -40.23152102 17.43318265 -48.953125 16.875 C-57.96653594 16.62287662 -67.08444856 17.73625915 -74 24 C-77.11041158 27.92443114 -78.33199077 31.62257761 -78.0625 36.625 C-77.25500335 41.22456426 -75.47955516 43.81657719 -72 47 C-61.63900373 53.33171994 -49.16557627 56.00232729 -37.5 58.9375 C-19.31247295 63.56390504 0.64993221 70.04220248 10.85546875 87.1015625 C17.52052563 100.11504647 18.39353755 116.20463011 14.10546875 130.296875 C7.77621887 145.77334468 -2.23416218 154.52718842 -17.25 161.51171875 C-33.75626652 167.99354275 -51.24287844 168.83826636 -68.6875 167.125 C-69.48422119 167.04677002 -70.28094238 166.96854004 -71.10180664 166.88793945 C-86.75968571 165.18617309 -100.37427083 159.73144231 -112 149 C-112 148.34 -112 147.68 -112 147 C-112.66 147 -113.32 147 -114 147 C-122.61543672 136.79304172 -125 125.01934195 -125 112 C-112.46 112 -99.92 112 -87 112 C-85.515 116.95 -85.515 116.95 -84 122 C-81.04404865 128.26661685 -76.24193282 130.5859397 -70 133 C-65.17338635 134.35828597 -60.22729581 134.22054855 -55.25 134.25 C-54.3940625 134.270625 -53.538125 134.29125 -52.65625 134.3125 C-44.49455575 134.36196481 -37.86672579 132.44317551 -31 128 C-30.01 127.67 -29.02 127.34 -28 127 C-26.83046584 124.57616923 -26.83046584 124.57616923 -26 122 C-25.67 121.34 -25.34 120.68 -25 120 C-24.41427337 114.48580216 -23.8737777 108.8152216 -27 104 C-32.11159307 98.35562058 -39.3781771 96.36665404 -46.5625 94.625 C-47.36896973 94.42003906 -48.17543945 94.21507812 -49.00634766 94.00390625 C-51.66885373 93.32752136 -54.33414491 92.66305445 -57 92 C-101.4138122 80.90585412 -101.4138122 80.90585412 -112.75 64.1875 C-117.30130182 56.25385384 -118.53824911 48.1654474 -118.4375 39.125 C-118.42920166 38.16045898 -118.42090332 37.19591797 -118.41235352 36.20214844 C-118.08303446 22.29339907 -113.08658368 12.38061613 -103.6875 2.25 C-76.71039233 -23.17532714 -28.7178854 -19.14525693 0 0 Z " fill="#FEFDFC" transform="translate(213,69)"/>
<path d="M0 0 C0.495 0.99 0.495 0.99 1 2 C1.680625 1.690625 2.36125 1.38125 3.0625 1.0625 C6 1 6 1 7.71484375 2.421875 C8.89085451 3.66736561 10.03929944 4.93956279 11.15625 6.23828125 C13.32727206 8.31271123 15.18982235 8.97249011 18 10 C20.02406632 11.07728084 22.04453681 12.1613297 24.0625 13.25 C37.84402196 20.32071255 53.30819185 23.49999814 68.33520508 26.82055664 C77.3266165 28.86653701 87.00237372 31.3683075 92.60546875 39.26171875 C95.0207532 44.00433611 94.61976749 48.80772571 94 54 C92.38294924 58.88592755 89.31024956 62.25711391 85 65 C73.19651674 70.25384584 57.18525856 71.6496679 44.96875 66.9609375 C38.20906831 63.66156906 35.17016132 60.33730946 31.84765625 53.5 C31 51 31 51 31 46 C18.46 46 5.92 46 -7 46 C-4.53619066 63.90562367 -4.53619066 63.90562367 4 79 C4 79.66 4 80.32 4 81 C4.66 81 5.32 81 6 81 C7.15823405 82.15823405 8.31297599 83.3201845 9.44921875 84.5 C14.02450648 88.92546722 19.20049861 92.39022438 25 95 C23.68 96.32 22.36 97.64 21 99 C19.515 98.505 19.515 98.505 18 98 C18 99.98 18 101.96 18 104 C15.69 103.67 13.38 103.34 11 103 C10.67 103.66 10.34 104.32 10 105 C8.15234375 106.0703125 8.15234375 106.0703125 5.9375 107.125 C5.20402344 107.47820312 4.47054687 107.83140625 3.71484375 108.1953125 C3.14894531 108.46085937 2.58304687 108.72640625 2 109 C2 109.66 2 110.32 2 111 C0.515 111.495 0.515 111.495 -1 112 C-1.185625 112.9590625 -1.185625 112.9590625 -1.375 113.9375 C-1.58125 114.618125 -1.7875 115.29875 -2 116 C-3.65204456 116.70211894 -5.31923769 117.36971413 -7 118 C-7.495 119.485 -7.495 119.485 -8 121 C-11.44444444 124 -11.44444444 124 -14 124 C-14 124.66 -14 125.32 -14 126 C-15.485 126.495 -15.485 126.495 -17 127 C-18.21869929 129.50447516 -18.21869929 129.50447516 -19 132 C-19.66 132 -20.32 132 -21 132 C-21.66 131.34 -22.32 130.68 -23 130 C-23.33 130.99 -23.66 131.98 -24 133 C-26.89558441 134.4477922 -28.74188938 135 -32 135 C-32.268125 135.598125 -32.53625 136.19625 -32.8125 136.8125 C-34.00987475 139.01819033 -35.04478984 140.43583187 -37 142 C-37.99 142 -38.98 142 -40 142 C-42.06479169 142.89259635 -42.06479169 142.89259635 -43.5 144.5625 C-45 146 -45 146 -47 146 C-47 147.32 -47 148.64 -47 150 C-48.98 149.67 -50.96 149.34 -53 149 C-53 149.66 -53 150.32 -53 151 C-53.639375 151.12375 -54.27875 151.2475 -54.9375 151.375 C-55.618125 151.58125 -56.29875 151.7875 -57 152 C-57.33 152.66 -57.66 153.32 -58 154 C-58.99 154 -59.98 154 -61 154 C-61 153.34 -61 152.68 -61 152 C-62.07507812 151.82404297 -62.07507812 151.82404297 -63.171875 151.64453125 C-66.11678816 150.97338391 -68.53392344 150.00081247 -71.25 148.6875 C-72.55710937 148.07455078 -72.55710937 148.07455078 -73.890625 147.44921875 C-76 146 -76 146 -76.6484375 143.9140625 C-76.76445313 143.28242188 -76.88046875 142.65078125 -77 142 C-77.78375 141.566875 -78.5675 141.13375 -79.375 140.6875 C-82.31309949 138.79872176 -82.99774711 137.30570616 -84.1796875 134.0859375 C-85.4649199 130.81777512 -87.22117781 127.79549846 -88.9140625 124.72265625 C-91.23035184 118.91526894 -91.16450709 112.34714733 -91.31640625 106.15625 C-91.34764587 105.03561157 -91.34764587 105.03561157 -91.3795166 103.89233398 C-91.44568564 101.42832488 -91.50468747 98.96421852 -91.5625 96.5 C-91.58367889 95.65026611 -91.60485779 94.80053223 -91.62667847 93.92504883 C-92.18089514 71.28635991 -92.09527683 48.64363723 -92 26 C-91.34 26 -90.68 26 -90 26 C-89.83131013 31.12266366 -89.670874 36.24549757 -89.51782227 41.36865234 C-89.46470918 43.10863055 -89.4094073 44.84854347 -89.35180664 46.58837891 C-89.2690309 49.10044274 -89.19433337 51.61264216 -89.12109375 54.125 C-89.08054115 55.27705933 -89.08054115 55.27705933 -89.03916931 56.45239258 C-88.9044198 61.41533433 -89.27613819 66.08651377 -90 71 C-89.34 71 -88.68 71 -88 71 C-88.061875 70.34 -88.12375 69.68 -88.1875 69 C-87.93679752 64.98876039 -87.04861057 61.4850865 -85 58 C-82.625 57.0625 -82.625 57.0625 -80 57 C-79.113125 56.814375 -78.22625 56.62875 -77.3125 56.4375 C-75 56 -75 56 -73 56 C-72.67 55.01 -72.34 54.02 -72 53 C-68.72855464 49.16451234 -68.72855464 49.16451234 -66.0625 48.5625 C-63.71555506 48.10991601 -63.71555506 48.10991601 -61.6875 45.625 C-59.28130064 43.27475876 -58.22100703 42.51722765 -55.25 41.375 C-54.1775 40.92125 -53.105 40.4675 -52 40 C-51.67 39.01 -51.34 38.02 -51 37 C-50.34 37 -49.68 37 -49 37 C-48.67 36.01 -48.34 35.02 -48 34 C-46.01276732 33.29618843 -44.01222047 32.6288189 -42 32 C-41.67 31.34 -41.34 30.68 -41 30 C-40.34 30 -39.68 30 -39 30 C-39 30.66 -39 31.32 -39 32 C-38.2575 31.21625 -37.515 30.4325 -36.75 29.625 C-32.72007187 25.77825042 -28.14578784 24.22042775 -23.0234375 22.1953125 C-20.58896511 20.75718788 -20.09265699 19.5562159 -19 17 C-18.34 16.34 -17.68 15.68 -17 15 C-16.01 15 -15.02 15 -14 15 C-14.495 13.02 -14.495 13.02 -15 11 C-11.76908333 9.21742529 -9.67481998 9 -6 9 C-5.9175 8.05125 -5.835 7.1025 -5.75 6.125 C-5 3 -5 3 -3 1.6875 C-2.01 1.3471875 -2.01 1.3471875 -1 1 C-0.67 0.67 -0.34 0.34 0 0 Z " fill="#FB9E4E" transform="translate(95,135)"/>
<path d="M0 0 C10.28028895 1.30949508 19.10347355 7.444741 26 15 C34.77861415 26.71762501 35.52477603 38.6341745 35.76342773 52.77709961 C35.81245339 55.55985422 35.88808026 58.34099072 35.96679688 61.12304688 C36.00679315 62.91663203 36.04525643 64.71025216 36.08203125 66.50390625 C36.10481644 67.32290909 36.12760162 68.14191193 36.15107727 68.98573303 C36.2254858 74.57516003 35.43521472 79.60112763 34 85 C33.34 85 32.68 85 32 85 C32 87.31 32 89.62 32 92 C31.071875 91.95875 30.14375 91.9175 29.1875 91.875 C25.84190281 91.72863661 25.84190281 91.72863661 23 94 C22.01 93.67 21.02 93.34 20 93 C19.54625 93.61875 19.0925 94.2375 18.625 94.875 C17 97 17 97 15 99 C14.34 98.67 13.68 98.34 13 98 C13.33 98.99 13.66 99.98 14 101 C13.38511719 101.10957031 12.77023437 101.21914062 12.13671875 101.33203125 C11.32847656 101.49058594 10.52023437 101.64914063 9.6875 101.8125 C8.88699219 101.96332031 8.08648437 102.11414063 7.26171875 102.26953125 C4.7221334 103.08974275 3.71837535 103.99942811 2 106 C-5 113 -5 113 -7.25 115.1875 C-9.07107096 116.89252684 -9.07107096 116.89252684 -10 119 C-10.825 119.28875 -11.65 119.5775 -12.5 119.875 C-15.18259554 120.72882071 -15.18259554 120.72882071 -15.8125 123.125 C-15.874375 123.74375 -15.93625 124.3625 -16 125 C-16.66 125 -17.32 125 -18 125 C-22.07638243 127.03819121 -24.19829157 129.47527003 -27 133 C-27.721875 133.309375 -28.44375 133.61875 -29.1875 133.9375 C-29.785625 134.288125 -30.38375 134.63875 -31 135 C-31.81584568 138.05908413 -31.81584568 138.05908413 -32 141 C-32.78375 141.0825 -33.5675 141.165 -34.375 141.25 C-35.24125 141.4975 -36.1075 141.745 -37 142 C-37.70151152 143.3153341 -38.36525925 144.65117592 -39 146 C-42.29518284 148.61676285 -45.79621522 149.98933547 -49.96484375 150.38671875 C-53.52941392 149.709382 -55.03571929 147.01968475 -57.16796875 144.26171875 C-62.9153299 137.16636245 -70.67847311 133.32627653 -79 130 C-79.80566406 129.66355469 -80.61132812 129.32710937 -81.44140625 128.98046875 C-88.25538491 126.3039294 -95.26801955 124.64963646 -102.3659668 122.92797852 C-130.88941491 115.9262091 -130.88941491 115.9262091 -137.86328125 106.984375 C-140.30273915 102.72580245 -140.64281624 98.59017132 -139.46875 93.859375 C-137.03272814 87.94976641 -132.66527994 84.69944373 -127 82 C-116.82902421 78.68407059 -106.97169215 79.38661855 -97 83 C-92.24238768 85.55501403 -89.03812868 88.52719945 -86 93 C-85.34 95.97 -84.68 98.94 -84 102 C-71.46 102 -58.92 102 -46 102 C-47.80514271 88.46142971 -49.59346977 77.06857341 -59 67 C-59.66 66.67 -60.32 66.34 -61 66 C-62.01866229 64.34467377 -63.01810813 62.67739862 -64 61 C-64.66 60.34 -65.32 59.68 -66 59 C-61.60441494 54.50547894 -58.19988173 52.48455582 -52.0078125 51.4140625 C-47.14863533 50.41197538 -44.9247057 46.70462721 -42 43 C-41.34 42.67 -40.68 42.34 -40 42 C-40 41.34 -40 40.68 -40 40 C-38.02 40 -36.04 40 -34 40 C-34.33 39.01 -34.66 38.02 -35 37 C-32.08235 35.0549 -30.37462715 34.54723683 -27 34 C-26.5978125 32.576875 -26.5978125 32.576875 -26.1875 31.125 C-25 28 -25 28 -22 26 C-21.67 25.34 -21.34 24.68 -21 24 C-20.01 24 -19.02 24 -18 24 C-17.62875 23.0409375 -17.62875 23.0409375 -17.25 22.0625 C-15.64454821 19.41350454 -14.92096045 19.73024011 -12 19 C-9.97945196 17.35830472 -7.97956942 15.69088222 -6 14 C-4.8553125 13.566875 -4.8553125 13.566875 -3.6875 13.125 C-1.55514125 11.98878097 -1.55514125 11.98878097 -1.25 8.375 C-1.1675 7.26125 -1.085 6.1475 -1 5 C0.32 4.67 1.64 4.34 3 4 C3 3.34 3 2.68 3 2 C2.01 2.33 1.02 2.66 0 3 C0 2.01 0 1.02 0 0 Z " fill="#FB9E4F" transform="translate(274,5)"/>
<path d="M0 0 C0.33 0 0.66 0 1 0 C2.35136618 24.95714556 2.8002194 50.0541026 1 75 C0.67 75 0.34 75 0 75 C-0.33 72.36 -0.66 69.72 -1 67 C-5.29079224 68.43026408 -7.59627258 71.48829355 -10.625 74.75 C-12 76 -12 76 -15 77 C-15.515625 77.515625 -16.03125 78.03125 -16.5625 78.5625 C-17.036875 79.036875 -17.51125 79.51125 -18 80 C-18.66 80 -19.32 80 -20 80 C-20.33 80.66 -20.66 81.32 -21 82 C-22.4375 84.125 -22.4375 84.125 -24 86 C-24.66 86 -25.32 86 -26 86 C-26.66 86.66 -27.32 87.32 -28 88 C-28.99 88 -29.98 88 -31 88 C-31.391875 88.94875 -31.78375 89.8975 -32.1875 90.875 C-34.33048204 94.56979662 -35.20011902 94.49334165 -39 96 C-41.42362253 97.9260996 -41.42362253 97.9260996 -43.6875 100.125 C-47.79003559 104 -47.79003559 104 -50 104 C-49.67 104.99 -49.34 105.98 -49 107 C-51.97 108.485 -51.97 108.485 -55 110 C-55 110.99 -55 111.98 -55 113 C-55.99 113.33 -56.98 113.66 -58 114 C-58.99 114.66 -59.98 115.32 -61 116 C-61.99 116.495 -61.99 116.495 -63 117 C-63.68486725 118.32407669 -64.34870203 119.65909241 -65 121 C-66.95879772 123.98077914 -67.52742156 124.84247385 -71 126 C-71.33 126.66 -71.66 127.32 -72 128 C-72.66 128 -73.32 128 -74 128 C-74.66 129.32 -75.32 130.64 -76 132 C-76.66 132 -77.32 132 -78 132 C-78.495 132.495 -78.99 132.99 -79.5 133.5 C-79.995 133.995 -80.49 134.49 -81 135 C-81.66 135 -82.32 135 -83 135 C-82.67 135.99 -82.34 136.98 -82 138 C-83.423125 138.433125 -83.423125 138.433125 -84.875 138.875 C-88.78836517 140.28381146 -89.69772107 141.5465816 -92 145 C-93.32138412 145.37793241 -94.65726694 145.70681608 -96 146 C-98.06324232 147.10458599 -98.06324232 147.10458599 -100.0625 148.4375 C-100.73410156 148.86933594 -101.40570313 149.30117187 -102.09765625 149.74609375 C-103.73523887 150.82548599 -105.3680856 151.91205706 -107 153 C-110.85945938 155.05837834 -114.85403642 156.61801214 -119 158 C-119.33 158.66 -119.66 159.32 -120 160 C-120.99 160.33 -121.98 160.66 -123 161 C-123.66 161.66 -124.32 162.32 -125 163 C-126.65919896 163.36871088 -128.32774271 163.69595322 -130 164 C-134.85742109 165.2352425 -134.85742109 165.2352425 -138 169 C-140.26460832 171.26460832 -143.96509644 171.42582906 -147 172 C-147.33 172.99 -147.66 173.98 -148 175 C-149.74803809 176.01704034 -151.50048047 177.03155598 -153.30859375 177.9375 C-155.32419272 179.04265597 -155.32419272 179.04265597 -157 182 C-157.680625 182.33 -158.36125 182.66 -159.0625 183 C-161.35342991 183.89698316 -161.35342991 183.89698316 -162 187 C-163.95576488 188.61856404 -165.96579719 189.97887474 -168.125 191.3125 C-170.65916488 193.5932484 -171.18317268 195.73269073 -172 199 C-172 199.99 -172 200.98 -172 202 C-172 202.66 -172 203.32 -172 204 C-180.1517071 204.79390539 -188.16524432 205.09942738 -196.34936523 204.96289062 C-199.52283448 204.92444673 -201.96307938 204.98769313 -205 206 C-206.66666667 205.66666667 -208.33333333 205.33333333 -210 205 C-213.85420072 204.79635339 -217.29705605 204.76568535 -221 206 C-222.34220385 205.70440277 -223.67595316 205.36849538 -225 205 C-227.80166806 204.90467458 -230.57753905 204.8599107 -233.37890625 204.8671875 C-234.1873851 204.86623077 -234.99586395 204.86527405 -235.82884216 204.86428833 C-237.53425169 204.8636091 -239.23966383 204.86544544 -240.94506836 204.86962891 C-243.55653677 204.87498776 -246.16783375 204.86967165 -248.77929688 204.86328125 C-250.43750038 204.86394194 -252.09570378 204.86522292 -253.75390625 204.8671875 C-254.53520401 204.86516327 -255.31650177 204.86313904 -256.12147522 204.86105347 C-259.34313795 204.87501 -261.92149008 204.97383003 -265 206 C-265.33 205.34 -265.66 204.68 -266 204 C-267.32 204 -268.64 204 -270 204 C-270.33 203.01 -270.66 202.02 -271 201 C-268.37801226 198.84622436 -266.35595828 197.59927826 -263 197 C-263 197.66 -263 198.32 -263 199 C-260.84166757 196.91866815 -260.84166757 196.91866815 -258.625 194 C-255.17647059 190.05882353 -255.17647059 190.05882353 -252 189 C-251.01 189 -250.02 189 -249 189 C-247.65080468 187.34614767 -246.31866272 185.678298 -245 184 C-241.94024557 181.99203616 -240.85514114 182 -237 182 C-236.67 180.68 -236.34 179.36 -236 178 C-235.34 178 -234.68 178 -234 178 C-234 178.99 -234 179.98 -234 181 C-233.34 181 -232.68 181 -232 181 C-231.67 178.69 -231.34 176.38 -231 174 C-229.68 174.33 -228.36 174.66 -227 175 C-227 174.34 -227 173.68 -227 173 C-223.53846154 170 -223.53846154 170 -221 170 C-221.33 169.01 -221.66 168.02 -222 167 C-221.360625 166.87625 -220.72125 166.7525 -220.0625 166.625 C-219.381875 166.41875 -218.70125 166.2125 -218 166 C-217.34145573 164.68291146 -216.71522568 163.34908726 -216.125 162 C-215 160 -215 160 -212 158 C-211.0409375 157.195625 -211.0409375 157.195625 -210.0625 156.375 C-208 155 -208 155 -204 155 C-203.67 154.34 -203.34 153.68 -203 153 C-201.01276732 152.29618843 -199.01222047 151.6288189 -197 151 C-195.7018576 149.8509288 -195.7018576 149.8509288 -195 147 C-193.7934375 146.7834375 -193.7934375 146.7834375 -192.5625 146.5625 C-190.07896294 146.25864751 -190.07896294 146.25864751 -189 145 C-184.92504537 145.35745216 -181.2702668 145.92886212 -177.3046875 146.97265625 C-172.79891067 148.12098206 -168.30900388 148.67121496 -163.6875 149.125 C-162.84501709 149.2077417 -162.00253418 149.2904834 -161.13452148 149.37573242 C-138.6985334 151.47984967 -114.20423001 148.43271743 -96 134 C-86.59218819 125.49520677 -80.88326117 114.11520924 -79.78076172 101.48925781 C-79.66178766 98.86386366 -79.62092031 96.25303901 -79.625 93.625 C-79.62443604 92.70468994 -79.62387207 91.78437988 -79.62329102 90.83618164 C-79.73603002 83.86669334 -81.01574809 78.31606729 -84 72 C-84.36584851 70.67521936 -84.71057356 69.343548 -85 68 C-83.1746875 67.9071875 -83.1746875 67.9071875 -81.3125 67.8125 C-77.75787563 67.38316704 -76.95401514 66.9626373 -74 64.5625 C-71.79490971 62.27899489 -71.79490971 62.27899489 -72 60 C-69.525 59.505 -69.525 59.505 -67 59 C-66.7525 58.05125 -66.505 57.1025 -66.25 56.125 C-64.78437872 52.46094681 -64.31793111 52.61611405 -61 51 C-59.33541491 49.29242177 -59.33541491 49.29242177 -57.875 47.375 C-56.3671875 45.4609375 -56.3671875 45.4609375 -55 44 C-54.34 44 -53.68 44 -53 44 C-52.01 43.01 -52.01 43.01 -51 42 C-50.67 41.67 -50.34 41.34 -50 41 C-49.360625 40.34 -48.72125 39.68 -48.0625 39 C-46 37 -46 37 -44 36 C-42.31183067 34.35511706 -40.64646685 32.68662458 -39 31 C-37.33333333 29.33333333 -35.66666667 27.66666667 -34 26 C-33.278125 25.154375 -32.55625 24.30875 -31.8125 23.4375 C-28.47488179 20.54489755 -26.33946492 20.25526264 -22 20 C-21.67 19.01 -21.34 18.02 -21 17 C-20.01 16.505 -20.01 16.505 -19 16 C-18.21625 15.13375 -17.4325 14.2675 -16.625 13.375 C-15.75875 12.59125 -14.8925 11.8075 -14 11 C-11.9375 11.3125 -11.9375 11.3125 -10 12 C-7.93330603 11.09166275 -7.93330603 11.09166275 -6 10 C-5.01 10 -4.02 10 -3 10 C-3 7.69 -3 5.38 -3 3 C-2.34 3 -1.68 3 -1 3 C-0.67 2.01 -0.34 1.02 0 0 Z " fill="#E16A9C" transform="translate(308,86)"/>
<path d="M0 0 C0.33 0 0.66 0 1 0 C1.85017438 9.40718407 2.14251954 18.68763981 1.86791992 28.1237793 C1.81225839 30.19649716 1.78391917 32.26854429 1.75585938 34.34179688 C1.44142259 48.4567245 -2.6633441 59.38609181 -12.3125 69.75 C-17.00838883 74.23718266 -22.61298518 77.64474178 -29 79 C-29 79.99 -29 80.98 -29 82 C-29.94875 81.95875 -30.8975 81.9175 -31.875 81.875 C-35.10244856 81.65026182 -35.10244856 81.65026182 -37 84 C-37.33 83.67 -37.66 83.34 -38 83 C-40.37199657 82.91033197 -42.7146159 82.88500988 -45.08666992 82.90234375 C-45.82820313 82.90380402 -46.56973633 82.90526428 -47.33374023 82.9067688 C-48.94997505 82.91058453 -50.56620564 82.91671123 -52.18242455 82.92483521 C-54.74233712 82.93755899 -57.30219807 82.94410491 -59.86213684 82.94897461 C-66.22546026 82.96237459 -72.58873519 82.98649291 -78.95202637 83.01037598 C-84.3185683 83.03013129 -89.68509162 83.04576738 -95.05166054 83.05593872 C-97.56980835 83.06240838 -100.08787998 83.07492112 -102.60600281 83.08764648 C-104.15945368 83.0912814 -105.71290524 83.09463283 -107.26635742 83.09765625 C-108.31165367 83.10540573 -108.31165367 83.10540573 -109.37806702 83.11331177 C-113.35762415 83.11374028 -117.09534426 82.76629558 -121 82 C-118.37495956 80.42497573 -116.52674848 79.93357873 -113.4375 79.5 C-109.88704437 79.23464413 -109.88704437 79.23464413 -107 77 C-106.27617533 74.94074861 -106.27617533 74.94074861 -106 73 C-105.01 73 -104.02 73 -103 73 C-102.34 72.01 -101.68 71.02 -101 70 C-100.34 70 -99.68 70 -99 70 C-98.360625 69.34 -97.72125 68.68 -97.0625 68 C-95 66 -95 66 -92 66 C-91.34 64.35 -90.68 62.7 -90 61 C-89.01 61 -88.02 61 -87 61 C-84.12387669 59.25485232 -84.12387669 59.25485232 -82.625 57.5 C-80.59761993 55.62857224 -78.56906651 54.96339994 -76 54 C-75.01 53.34 -74.02 52.68 -73 52 C-70 50 -70 50 -68 50 C-67.71125 49.360625 -67.4225 48.72125 -67.125 48.0625 C-66 46 -66 46 -64 45 C-56.6816737 40.98403434 -56.6816737 40.98403434 -51 35 C-49 33 -49 33 -46.5 32.5625 C-43.65063471 32.2234444 -43.65063471 32.2234444 -42 29 C-39 27 -39 27 -36.875 26.1875 C-34.71722133 25.11221696 -34.71722133 25.11221696 -34.25 22.375 C-34.1675 21.59125 -34.085 20.8075 -34 20 C-32.68 20 -31.36 20 -30 20 C-29.34 19.34 -28.68 18.68 -28 18 C-27.34 17.34 -26.68 16.68 -26 16 C-24.68 16 -23.36 16 -22 16 C-21.34 14.68 -20.68 13.36 -20 12 C-19.01 12 -18.02 12 -17 12 C-16.67 11.01 -16.34 10.02 -16 9 C-15.01 9 -14.02 9 -13 9 C-10.32643843 8.71372955 -7.66634425 8.34968449 -5 8 C-4.67 7.01 -4.34 6.02 -4 5 C-2 2.3125 -2 2.3125 0 0 Z " fill="#BB3CDC" transform="translate(308,208)"/>
<path d="M0 0 C0.33 0 0.66 0 1 0 C1.80576918 6.34543232 2.13357255 12.61027114 2.1875 19 C2.20039063 19.754021 2.21328125 20.50804199 2.2265625 21.28491211 C2.23002222 23.19143461 2.12308154 25.09745146 2 27 C1.34 27.66 0.68 28.32 0 29 C-0.33 28.34 -0.66 27.68 -1 27 C-1.928125 28.2375 -1.928125 28.2375 -2.875 29.5 C-3.57625 30.325 -4.2775 31.15 -5 32 C-5.66 32 -6.32 32 -7 32 C-7.33 32.66 -7.66 33.32 -8 34 C-9.55859375 35.2890625 -9.55859375 35.2890625 -11.4375 36.625 C-12.05496094 37.07101563 -12.67242187 37.51703125 -13.30859375 37.9765625 C-15 39 -15 39 -17 39 C-17.33 39.99 -17.66 40.98 -18 42 C-19.98723268 42.70381157 -21.98777953 43.3711811 -24 44 C-24.33 44.66 -24.66 45.32 -25 46 C-25.7425 46.433125 -26.485 46.86625 -27.25 47.3125 C-30.14710378 48.94335577 -30.14710378 48.94335577 -32.625 51.625 C-35 54 -35 54 -38 55 C-38.33 55.66 -38.66 56.32 -39 57 C-40.32467746 57.6837045 -41.65863633 58.34964186 -43 59 C-45.10455594 61.00522074 -45.10455594 61.00522074 -46.9375 63.625 C-47.618125 64.40875 -48.29875 65.1925 -49 66 C-49.99 66 -50.98 66 -52 66 C-52.04125 66.556875 -52.0825 67.11375 -52.125 67.6875 C-53.66281926 71.75173662 -57.30957222 74.22723301 -61.1875 76 C-63.2516728 76.92186392 -63.2516728 76.92186392 -64.3125 79.5 C-66.65780252 82.97452224 -69.02312556 82.97149799 -73 84 C-74.68889872 85.3050581 -76.3603279 86.63360658 -78 88 C-78.99 88 -79.98 88 -81 88 C-81 88.66 -81 89.32 -81 90 C-81.99 90 -82.98 90 -84 90 C-84.33 90.66 -84.66 91.32 -85 92 C-85.66 91.67 -86.32 91.34 -87 91 C-87.495 92.98 -87.495 92.98 -88 95 C-88.639375 95.12375 -89.27875 95.2475 -89.9375 95.375 C-90.618125 95.58125 -91.29875 95.7875 -92 96 C-92.33 96.66 -92.66 97.32 -93 98 C-95.11634078 99.20933759 -97.19802645 100.06930926 -99.5 100.875 C-102.11629512 101.85255441 -102.11629512 101.85255441 -103.875 104.0625 C-106.75120068 106.68491827 -109.19940343 106.70764642 -113 107 C-113.2475 107.969375 -113.495 108.93875 -113.75 109.9375 C-115 113 -115 113 -116.875 113.8125 C-117.57625 113.874375 -118.2775 113.93625 -119 114 C-119.7425 114.185625 -120.485 114.37125 -121.25 114.5625 C-122.11625 114.7790625 -122.11625 114.7790625 -123 115 C-123 115.99 -123 116.98 -123 118 C-123.763125 118.04125 -124.52625 118.0825 -125.3125 118.125 C-128.32405113 118.77823609 -128.32405113 118.77823609 -129.8125 122.0625 C-130.204375 123.031875 -130.59625 124.00125 -131 125 C-131.99 125 -132.98 125 -134 125 C-136.08333333 125.16666667 -136.08333333 125.16666667 -138 126 C-138.33 126.66 -138.66 127.32 -139 128 C-140 130 -140 130 -142.125 130.75 C-142.74375 130.8325 -143.3625 130.915 -144 131 C-144.07347656 131.62648438 -144.14695313 132.25296875 -144.22265625 132.8984375 C-145 135 -145 135 -146.99609375 135.9765625 C-148.20458984 136.29753906 -148.20458984 136.29753906 -149.4375 136.625 C-153.10322398 137.59663002 -153.10322398 137.59663002 -156 140 C-160.83721209 140.57079103 -166.34331567 140.362932 -171 139 C-172.5625 137.25 -172.5625 137.25 -173 135 C-171.6875 132.5 -171.6875 132.5 -170 130 C-169.835 129.278125 -169.67 128.55625 -169.5 127.8125 C-169 126 -169 126 -166 124 C-163.71755695 121.77461803 -161.48468452 119.52058708 -159.3125 117.1875 C-158 116 -158 116 -156 116 C-154.75690581 114.49520177 -153.51615047 112.98821564 -152.30078125 111.4609375 C-150.73260427 109.69968167 -149.16438085 108.89560587 -147 108 C-146.01 107.01 -146.01 107.01 -145 106 C-143.68 106 -142.36 106 -141 106 C-140.67 105.34 -140.34 104.68 -140 104 C-136.53603242 100.53603242 -133.79656874 99.74613292 -129 99 C-128.67 98.34 -128.34 97.68 -128 97 C-127.01 97.33 -126.02 97.66 -125 98 C-124.67 97.34 -124.34 96.68 -124 96 C-122.29296875 95 -122.29296875 95 -120.1875 94 C-119.50042969 93.67 -118.81335938 93.34 -118.10546875 93 C-117.41066406 92.67 -116.71585938 92.34 -116 92 C-115.30777344 91.649375 -114.61554688 91.29875 -113.90234375 90.9375 C-112 90 -112 90 -109.375 89 C-106.86923233 88.12076359 -106.86923233 88.12076359 -105 86 C-103.39372429 84.97019257 -101.76583948 83.97379197 -100.125 83 C-99.26132813 82.484375 -98.39765625 81.96875 -97.5078125 81.4375 C-95.96649202 80.55400166 -94.40045346 79.71034341 -92.80078125 78.9375 C-90.8237816 78.02871943 -90.8237816 78.02871943 -89.0625 76 C-86.81991276 73.82536995 -84.93780321 72.97926774 -82 72 C-82 71.34 -82 70.68 -82 70 C-81.360625 69.896875 -80.72125 69.79375 -80.0625 69.6875 C-79.381875 69.460625 -78.70125 69.23375 -78 69 C-77.505 67.515 -77.505 67.515 -77 66 C-76.01 65.67 -75.02 65.34 -74 65 C-73.505 64.01 -73.505 64.01 -73 63 C-72.34 63 -71.68 63 -71 63 C-70.34 61.68 -69.68 60.36 -69 59 C-68.34 59.33 -67.68 59.66 -67 60 C-66.731875 59.2575 -66.46375 58.515 -66.1875 57.75 C-65.04723249 55.10938051 -63.90619694 53.14447156 -62 51 C-61.34 51 -60.68 51 -60 51 C-59.505 50.01 -59.505 50.01 -59 49 C-58.360625 48.71125 -57.72125 48.4225 -57.0625 48.125 C-54.84793921 47.17176549 -54.84793921 47.17176549 -54 45 C-52.75491604 42.50983207 -51.53283204 42.01313282 -49 41 C-49 40.34 -49 39.68 -49 39 C-47.44684614 37.62751319 -45.83114316 36.32521299 -44.1875 35.0625 C-41.29438661 32.82899976 -38.5111062 30.66127202 -36 28 C-35.01 28.33 -34.02 28.66 -33 29 C-32.814375 28.1028125 -32.814375 28.1028125 -32.625 27.1875 C-32 25 -32 25 -30 22 C-27.875 21.3125 -27.875 21.3125 -26 21 C-26 20.34 -26 19.68 -26 19 C-25.01 19.33 -24.02 19.66 -23 20 C-22.649375 19.46375 -22.29875 18.9275 -21.9375 18.375 C-18.30192423 13.91848777 -14.16357673 10.51171895 -9 8 C-7.97895449 7.02149805 -6.9793879 6.02019573 -6 5 C-4.67151309 3.99357052 -3.33849671 2.99307821 -2 2 C-1.34 1.34 -0.68 0.68 0 0 Z " fill="#DA61AB" transform="translate(307,151)"/>
<path d="M0 0 C0.33 0 0.66 0 1 0 C2.19619476 17.18407057 1.62988285 33.85929813 0 51 C-1 49 -2 47 -3 45 C-3.33 45 -3.66 45 -4 45 C-4.33 45.99 -4.66 46.98 -5 48 C-7.04695631 50.04695631 -10.23453303 50.85181731 -12.87109375 51.96484375 C-15.14496379 52.92715727 -15.14496379 52.92715727 -17 55 C-17.33 54.67 -17.66 54.34 -18 54 C-18.226875 54.61875 -18.45375 55.2375 -18.6875 55.875 C-20.37929835 58.61410209 -21.99244161 59.05024472 -25 60 C-25 60.66 -25 61.32 -25 62 C-25.66 62 -26.32 62 -27 62 C-27.495 62.99 -27.495 62.99 -28 64 C-28.66 64 -29.32 64 -30 64 C-30.66 65.32 -31.32 66.64 -32 68 C-32.99 68 -33.98 68 -35 68 C-36.60907108 70.37612865 -36.60907108 70.37612865 -38 73 C-38.66 73.66 -39.32 74.32 -40 75 C-40.99 75 -41.98 75 -43 75 C-44.25828509 76.64216416 -44.25828509 76.64216416 -45.3125 78.75 C-47.63346035 82.73980797 -50.07887762 84.52798807 -54 87 C-55.04892238 88.63631892 -56.04906703 90.30485863 -57 92 C-61.36170213 96.68085106 -61.36170213 96.68085106 -64 98 C-64 98.66 -64 99.32 -64 100 C-64.8971875 100.309375 -64.8971875 100.309375 -65.8125 100.625 C-68.81018767 102.50926082 -69.61361776 104.81132084 -71 108 C-71.66 108 -72.32 108 -73 108 C-73.185625 108.70125 -73.37125 109.4025 -73.5625 110.125 C-75.27246743 113.54493485 -77.31082383 115.08216007 -80.24609375 117.44140625 C-82.76152355 119.67672137 -84.2852499 122.11921984 -86 125 C-86 121.2623731 -84.70357227 119.04500171 -83.0703125 115.7421875 C-80.25173335 108.52086428 -79.61304866 101.3237698 -79.625 93.625 C-79.62443604 92.70468994 -79.62387207 91.78437988 -79.62329102 90.83618164 C-79.73603002 83.86669334 -81.01574809 78.31606729 -84 72 C-84.36584851 70.67521936 -84.71057356 69.343548 -85 68 C-83.1746875 67.9071875 -83.1746875 67.9071875 -81.3125 67.8125 C-77.75787563 67.38316704 -76.95401514 66.9626373 -74 64.5625 C-71.79490971 62.27899489 -71.79490971 62.27899489 -72 60 C-69.525 59.505 -69.525 59.505 -67 59 C-66.7525 58.05125 -66.505 57.1025 -66.25 56.125 C-64.78437872 52.46094681 -64.31793111 52.61611405 -61 51 C-59.33541491 49.29242177 -59.33541491 49.29242177 -57.875 47.375 C-56.3671875 45.4609375 -56.3671875 45.4609375 -55 44 C-54.34 44 -53.68 44 -53 44 C-52.34 43.34 -51.68 42.68 -51 42 C-50.67 41.67 -50.34 41.34 -50 41 C-49.360625 40.34 -48.72125 39.68 -48.0625 39 C-46 37 -46 37 -44 36 C-42.31183067 34.35511706 -40.64646685 32.68662458 -39 31 C-37.33333333 29.33333333 -35.66666667 27.66666667 -34 26 C-33.278125 25.154375 -32.55625 24.30875 -31.8125 23.4375 C-28.47488179 20.54489755 -26.33946492 20.25526264 -22 20 C-21.505 18.515 -21.505 18.515 -21 17 C-20.01 16.505 -20.01 16.505 -19 16 C-18.21625 15.13375 -17.4325 14.2675 -16.625 13.375 C-15.75875 12.59125 -14.8925 11.8075 -14 11 C-11.9375 11.3125 -11.9375 11.3125 -10 12 C-7.93330603 11.09166275 -7.93330603 11.09166275 -6 10 C-5.01 10 -4.02 10 -3 10 C-3 7.69 -3 5.38 -3 3 C-2.34 3 -1.68 3 -1 3 C-0.67 2.01 -0.34 1.02 0 0 Z " fill="#EB7886" transform="translate(308,86)"/>
<path d="M0 0 C4.07495463 0.35745216 7.7297332 0.92886212 11.6953125 1.97265625 C16.20108933 3.12098206 20.69099612 3.67121496 25.3125 4.125 C26.57622437 4.24911255 26.57622437 4.24911255 27.86547852 4.37573242 C38.69081818 5.39096669 48.38214298 4.82380513 59.09741211 2.97973633 C59.93022705 2.84075928 60.76304199 2.70178223 61.62109375 2.55859375 C62.3680249 2.42767334 63.11495605 2.29675293 63.88452148 2.16186523 C66.15717548 1.98797376 67.8344558 2.32899062 70 3 C66.55930376 5.29379749 65.27709699 6 61 6 C60.67 6.99 60.34 7.98 60 9 C57.1875 9.46875 57.1875 9.46875 54.375 9.9375 C53.33085937 10.11152344 52.28671875 10.28554687 51.2109375 10.46484375 C49.0548451 10.82419248 46.89278982 11.14930161 44.7265625 11.44140625 C41.86619008 11.76660943 41.86619008 11.76660943 40 14 C38.33333333 14.33333333 36.66666667 14.66666667 35 15 C34.34 15.66 33.68 16.32 33 17 C32.34 17 31.68 17 31 17 C30.34 17.66 29.68 18.32 29 19 C27.33678518 19.35015049 25.66965451 19.68197057 24 20 C22.65909241 20.65129797 21.32407669 21.31513275 20 22 C19.34 22 18.68 22 18 22 C18 23.32 18 24.64 18 26 C15.74339496 27.60337726 13.46835565 28.76582217 11 30 C10.505 31.485 10.505 31.485 10 33 C9.34 33 8.68 33 8 33 C7.62875 33.86625 7.62875 33.86625 7.25 34.75 C5.82711157 37.31119917 4.0666952 38.9333048 2 41 C1.505 41.9075 1.01 42.815 0.5 43.75 C0.005 44.4925 -0.49 45.235 -1 46 C-2.32 46 -3.64 46 -5 46 C-5.4021875 47.0828125 -5.4021875 47.0828125 -5.8125 48.1875 C-6.98982498 50.97590126 -8.39145884 53.44095724 -10 56 C-8.515 56.495 -8.515 56.495 -7 57 C-7 57.66 -7 58.32 -7 59 C-5.02 59.495 -5.02 59.495 -3 60 C-3.68707031 59.98839844 -4.37414062 59.97679687 -5.08203125 59.96484375 C-5.98308594 59.95582031 -6.88414063 59.94679688 -7.8125 59.9375 C-8.70582031 59.92589844 -9.59914063 59.91429687 -10.51953125 59.90234375 C-13.13413791 59.88990033 -13.13413791 59.88990033 -16 61 C-17.66666667 60.66666667 -19.33333333 60.33333333 -21 60 C-24.85420072 59.79635339 -28.29705605 59.76568535 -32 61 C-33.34220385 60.70440277 -34.67595316 60.36849538 -36 60 C-38.80166806 59.90467458 -41.57753905 59.8599107 -44.37890625 59.8671875 C-45.1873851 59.86623077 -45.99586395 59.86527405 -46.82884216 59.86428833 C-48.53425169 59.8636091 -50.23966383 59.86544544 -51.94506836 59.86962891 C-54.55653677 59.87498776 -57.16783375 59.86967165 -59.77929688 59.86328125 C-61.43750038 59.86394194 -63.09570378 59.86522292 -64.75390625 59.8671875 C-65.53520401 59.86516327 -66.31650177 59.86313904 -67.12147522 59.86105347 C-70.34313795 59.87501 -72.92149008 59.97383003 -76 61 C-76.33 60.34 -76.66 59.68 -77 59 C-78.32 59 -79.64 59 -81 59 C-81.495 57.515 -81.495 57.515 -82 56 C-79.37801226 53.84622436 -77.35595828 52.59927826 -74 52 C-74 52.66 -74 53.32 -74 54 C-71.84166757 51.91866815 -71.84166757 51.91866815 -69.625 49 C-66.17647059 45.05882353 -66.17647059 45.05882353 -63 44 C-62.01 44 -61.02 44 -60 44 C-58.65080468 42.34614767 -57.31866272 40.678298 -56 39 C-52.94024557 36.99203616 -51.85514114 37 -48 37 C-47.67 35.68 -47.34 34.36 -47 33 C-46.34 33 -45.68 33 -45 33 C-45 33.99 -45 34.98 -45 36 C-44.34 36 -43.68 36 -43 36 C-42.67 33.69 -42.34 31.38 -42 29 C-40.68 29.33 -39.36 29.66 -38 30 C-38 29.34 -38 28.68 -38 28 C-34.53846154 25 -34.53846154 25 -32 25 C-32.495 23.515 -32.495 23.515 -33 22 C-32.360625 21.87625 -31.72125 21.7525 -31.0625 21.625 C-30.381875 21.41875 -29.70125 21.2125 -29 21 C-28.34145573 19.68291146 -27.71522568 18.34908726 -27.125 17 C-26 15 -26 15 -23 13 C-22.360625 12.46375 -21.72125 11.9275 -21.0625 11.375 C-19 10 -19 10 -15 10 C-14.67 9.34 -14.34 8.68 -14 8 C-12.01276732 7.29618843 -10.01222047 6.6288189 -8 6 C-6.7018576 4.8509288 -6.7018576 4.8509288 -6 2 C-5.195625 1.855625 -4.39125 1.71125 -3.5625 1.5625 C-1.07896294 1.25864751 -1.07896294 1.25864751 0 0 Z " fill="#EB7987" transform="translate(119,231)"/>
<path d="M0 0 C0.33 0 0.66 0 1 0 C2.70578439 13.96118914 1.6420858 27.99641441 1 42 C0.67 42 0.34 42 0 42 C0 39.69 0 37.38 0 35 C-1.65 34.34 -3.3 33.68 -5 33 C-4.67 30.69 -4.34 28.38 -4 26 C-5.32 27.65 -6.64 29.3 -8 31 C-9.485 30.505 -9.485 30.505 -11 30 C-11.598125 30.639375 -12.19625 31.27875 -12.8125 31.9375 C-15 34 -15 34 -18 35 C-18 35.66 -18 36.32 -18 37 C-19.03125 36.938125 -20.0625 36.87625 -21.125 36.8125 C-25.28152667 37.01362226 -27.52307902 37.76483651 -31 40 C-31.33 40.99 -31.66 41.98 -32 43 C-34 43.66666667 -36 44.33333333 -38 45 C-39.8929807 47.08744972 -39.8929807 47.08744972 -41.6875 49.5625 C-42.31011719 50.38878906 -42.93273437 51.21507812 -43.57421875 52.06640625 C-44.27998047 53.02353516 -44.27998047 53.02353516 -45 54 C-45.66 53.67 -46.32 53.34 -47 53 C-49.16343011 55.03268602 -49.16343011 55.03268602 -51 58 C-51 58.66 -51 59.32 -51 60 C-51.8971875 60.1546875 -51.8971875 60.1546875 -52.8125 60.3125 C-55.28243264 61.08876455 -56.32251235 62.07088921 -58 64 C-58.66 62.68 -59.32 61.36 -60 60 C-60.33 60.99 -60.66 61.98 -61 63 C-61.66 63 -62.32 63 -63 63 C-65.17204 65.96187272 -66.83561997 68.50685991 -68 72 C-69.093125 72.309375 -70.18625 72.61875 -71.3125 72.9375 C-75.16792851 74.04838618 -76.3912433 75.10138145 -79 78 C-79.66 78 -80.32 78 -81 78 C-81.33 78.66 -81.66 79.32 -82 80 C-71.11 80.495 -71.11 80.495 -60 81 C-60.33 81.66 -60.66 82.32 -61 83 C-68.58055912 83.02538249 -76.16110726 83.04288059 -83.74169922 83.05493164 C-86.31982839 83.05995629 -88.89795471 83.06677708 -91.47607422 83.07543945 C-95.18457746 83.08758677 -98.89304297 83.09324706 -102.6015625 83.09765625 C-103.75177887 83.10281754 -104.90199524 83.10797882 -106.08706665 83.11329651 C-107.70806778 83.11340981 -107.70806778 83.11340981 -109.36181641 83.11352539 C-110.30779694 83.115746 -111.25377747 83.11796661 -112.22842407 83.12025452 C-115.21782028 82.99054911 -118.06069152 82.54720934 -121 82 C-118.37495956 80.42497573 -116.52674848 79.93357873 -113.4375 79.5 C-109.88704437 79.23464413 -109.88704437 79.23464413 -107 77 C-106.27617533 74.94074861 -106.27617533 74.94074861 -106 73 C-105.01 73 -104.02 73 -103 73 C-102.34 72.01 -101.68 71.02 -101 70 C-100.34 70 -99.68 70 -99 70 C-98.360625 69.34 -97.72125 68.68 -97.0625 68 C-95 66 -95 66 -92 66 C-91.34 64.35 -90.68 62.7 -90 61 C-89.01 61 -88.02 61 -87 61 C-84.12387669 59.25485232 -84.12387669 59.25485232 -82.625 57.5 C-80.59761993 55.62857224 -78.56906651 54.96339994 -76 54 C-75.01 53.34 -74.02 52.68 -73 52 C-70 50 -70 50 -68 50 C-67.71125 49.360625 -67.4225 48.72125 -67.125 48.0625 C-66 46 -66 46 -64 45 C-56.6816737 40.98403434 -56.6816737 40.98403434 -51 35 C-49 33 -49 33 -46.5 32.5625 C-43.65063471 32.2234444 -43.65063471 32.2234444 -42 29 C-39 27 -39 27 -36.875 26.1875 C-34.71722133 25.11221696 -34.71722133 25.11221696 -34.25 22.375 C-34.1675 21.59125 -34.085 20.8075 -34 20 C-32.68 20 -31.36 20 -30 20 C-29.34 19.34 -28.68 18.68 -28 18 C-27.34 17.34 -26.68 16.68 -26 16 C-24.68 16 -23.36 16 -22 16 C-21.34 14.68 -20.68 13.36 -20 12 C-19.01 12 -18.02 12 -17 12 C-16.67 11.01 -16.34 10.02 -16 9 C-15.01 9 -14.02 9 -13 9 C-10.32643843 8.71372955 -7.66634425 8.34968449 -5 8 C-4.67 7.01 -4.34 6.02 -4 5 C-2 2.3125 -2 2.3125 0 0 Z " fill="#C345CE" transform="translate(308,208)"/>
<path d="M0 0 C0.33 0 0.66 0 1 0 C1.05380578 2.79192205 1.09357669 5.5828141 1.125 8.375 C1.14175781 9.1690625 1.15851563 9.963125 1.17578125 10.78125 C1.19335473 12.85492015 1.10335168 14.92883241 1 17 C0.34 17.66 -0.32 18.32 -1 19 C-1.33 18.34 -1.66 17.68 -2 17 C-2.928125 18.2375 -2.928125 18.2375 -3.875 19.5 C-4.57625 20.325 -5.2775 21.15 -6 22 C-6.66 22 -7.32 22 -8 22 C-8.33 22.66 -8.66 23.32 -9 24 C-10.55859375 25.2890625 -10.55859375 25.2890625 -12.4375 26.625 C-13.05496094 27.07101563 -13.67242187 27.51703125 -14.30859375 27.9765625 C-16 29 -16 29 -18 29 C-18.33 29.99 -18.66 30.98 -19 32 C-20.98723268 32.70381157 -22.98777953 33.3711811 -25 34 C-25.33 34.66 -25.66 35.32 -26 36 C-26.7425 36.433125 -27.485 36.86625 -28.25 37.3125 C-31.14710378 38.94335577 -31.14710378 38.94335577 -33.625 41.625 C-36 44 -36 44 -39 45 C-39.33 45.66 -39.66 46.32 -40 47 C-41.32467746 47.6837045 -42.65863633 48.34964186 -44 49 C-46.10455594 51.00522074 -46.10455594 51.00522074 -47.9375 53.625 C-48.618125 54.40875 -49.29875 55.1925 -50 56 C-50.99 56 -51.98 56 -53 56 C-53.04125 56.556875 -53.0825 57.11375 -53.125 57.6875 C-54.66281926 61.75173662 -58.30957222 64.22723301 -62.1875 66 C-64.2516728 66.92186392 -64.2516728 66.92186392 -65.3125 69.5 C-67.65780252 72.97452224 -70.02312556 72.97149799 -74 74 C-75.68889872 75.3050581 -77.3603279 76.63360658 -79 78 C-79.99 78 -80.98 78 -82 78 C-82 78.66 -82 79.32 -82 80 C-82.99 80 -83.98 80 -85 80 C-85.33 80.66 -85.66 81.32 -86 82 C-86.66 81.67 -87.32 81.34 -88 81 C-88.495 82.98 -88.495 82.98 -89 85 C-89.639375 85.12375 -90.27875 85.2475 -90.9375 85.375 C-91.618125 85.58125 -92.29875 85.7875 -93 86 C-93.33 86.66 -93.66 87.32 -94 88 C-96.11634078 89.20933759 -98.19802645 90.06930926 -100.5 90.875 C-103.11629512 91.85255441 -103.11629512 91.85255441 -104.875 94.0625 C-107.75120068 96.68491827 -110.19940343 96.70764642 -114 97 C-114.2475 97.969375 -114.495 98.93875 -114.75 99.9375 C-116 103 -116 103 -117.875 103.8125 C-118.57625 103.874375 -119.2775 103.93625 -120 104 C-120.7425 104.185625 -121.485 104.37125 -122.25 104.5625 C-123.11625 104.7790625 -123.11625 104.7790625 -124 105 C-124 105.99 -124 106.98 -124 108 C-124.763125 108.04125 -125.52625 108.0825 -126.3125 108.125 C-129.32405113 108.77823609 -129.32405113 108.77823609 -130.8125 112.0625 C-131.204375 113.031875 -131.59625 114.00125 -132 115 C-132.99 115 -133.98 115 -135 115 C-137.08333333 115.16666667 -137.08333333 115.16666667 -139 116 C-139.33 116.66 -139.66 117.32 -140 118 C-141 120 -141 120 -143.125 120.75 C-143.74375 120.8325 -144.3625 120.915 -145 121 C-145.07347656 121.62648438 -145.14695313 122.25296875 -145.22265625 122.8984375 C-146 125 -146 125 -147.99609375 125.9765625 C-148.80175781 126.19054687 -149.60742188 126.40453125 -150.4375 126.625 C-154.10322398 127.59663002 -154.10322398 127.59663002 -157 130 C-159.05859375 130.23046875 -159.05859375 130.23046875 -161.4375 130.1875 C-162.61119141 130.17783203 -162.61119141 130.17783203 -163.80859375 130.16796875 C-166 130 -166 130 -169 129 C-168.67 128.01 -168.34 127.02 -168 126 C-168 126.66 -168 127.32 -168 128 C-165.37098712 126.47793991 -163.15634036 125.15634036 -161 123 C-159.01679982 121.96708324 -157.01652194 120.9662501 -155 120 C-152.2160817 118.60804085 -152.02101003 116.84424221 -151 114 C-149.68 114.33 -148.36 114.66 -147 115 C-147 113.68 -147 112.36 -147 111 C-142.77777778 107 -142.77777778 107 -140 107 C-136.95865509 105.33075929 -136.95865509 105.33075929 -136 103 C-134.68 103 -133.36 103 -132 103 C-131.505 101.515 -131.505 101.515 -131 100 C-128.75421292 97.75421292 -126.930208 97.14349581 -124 96 C-123.01 95.34 -122.02 94.68 -121 94 C-118.8125 94.375 -118.8125 94.375 -117 95 C-116.835 94.05125 -116.67 93.1025 -116.5 92.125 C-115 89 -115 89 -113.15625 88.2265625 C-111.73839421 87.91319582 -110.31006488 87.6434659 -108.875 87.421875 C-106.76658829 87.1230161 -106.76658829 87.1230161 -105 85 C-104.34 84.34 -103.68 83.68 -103 83 C-102.01 83 -101.02 83 -100 83 C-99.566875 82.525625 -99.13375 82.05125 -98.6875 81.5625 C-96.3293094 79.37899018 -94.12597439 79.34733049 -91 79 C-91.33 78.34 -91.66 77.68 -92 77 C-91.34 77 -90.68 77 -90 77 C-89.01 75.02 -89.01 75.02 -88 73 C-87.67 73.66 -87.34 74.32 -87 75 C-83.72226496 74.24849977 -83.72226496 74.24849977 -82 71 C-81.01 70.67 -80.02 70.34 -79 70 C-78.62875 69.0409375 -78.62875 69.0409375 -78.25 68.0625 C-77 66 -77 66 -73.75 65.1875 C-69.38528071 63.80533889 -68.13335124 62.30154519 -65.41015625 58.80859375 C-63.47601553 56.32796452 -61.25174029 54.19088245 -59 52 C-58.505 51.443125 -58.01 50.88625 -57.5 50.3125 C-56 49 -56 49 -53.4375 48 C-50.68761678 47.13727591 -50.68761678 47.13727591 -49 44 C-48.67 43.01 -48.34 42.02 -48 41 C-45.9375 40.3125 -45.9375 40.3125 -44 40 C-44 39.01 -44 38.02 -44 37 C-42.35546875 35.71875 -42.35546875 35.71875 -40.1875 34.5 C-37.96605171 33.23753758 -36.16363266 32.16558532 -34.36328125 30.34375 C-33 29 -33 29 -31 29 C-30.67 28.34 -30.34 27.68 -30 27 C-29.071875 26.7834375 -29.071875 26.7834375 -28.125 26.5625 C-25.60114568 25.89442092 -24.77640737 24.85364248 -23 23 C-22.01 22.67 -21.02 22.34 -20 22 C-18.29144978 18.99992729 -18.29144978 18.99992729 -17 16 C-15.68 16 -14.36 16 -13 16 C-12.34 15.01 -11.68 14.02 -11 13 C-11 13.99 -11 14.98 -11 16 C-8.64214682 15.10664203 -8.64214682 15.10664203 -7.875 11.9375 C-7.58625 10.968125 -7.2975 9.99875 -7 9 C-5.02 9.495 -5.02 9.495 -3 10 C-3.33 9.34 -3.66 8.68 -4 8 C-3.01 7.67 -2.02 7.34 -1 7 C-0.67 4.69 -0.34 2.38 0 0 Z " fill="#D55BB3" transform="translate(308,161)"/>
<path d="M0 0 C4.75079505 0.41673641 9.1525189 1.23135731 13.76953125 2.45703125 C18.13520023 3.51977729 22.57407219 4.23522571 27 5 C25 8 25 8 22 8.625 C21.01 8.74875 20.02 8.8725 19 9 C18.34 9.33 17.68 9.66 17 10 C16.505 9.505 16.505 9.505 16 9 C15.01 9.33 14.02 9.66 13 10 C11 10 9 10 7 10 C5.32546201 10.291224 3.65449105 10.61070799 2 11 C1.67 11.99 1.34 12.98 1 14 C0.01 13.67 -0.98 13.34 -2 13 C-2.66 13.99 -3.32 14.98 -4 16 C-5 17.33333333 -6 18.66666667 -7 20 C-7.99 21.485 -7.99 21.485 -9 23 C-9.66 22.67 -10.32 22.34 -11 22 C-11.2475 22.61875 -11.495 23.2375 -11.75 23.875 C-13.21956837 26.37326623 -14.28564404 27.06694014 -17 28 C-17.66 27.67 -18.32 27.34 -19 27 C-19.23460937 27.59554688 -19.46921875 28.19109375 -19.7109375 28.8046875 C-21.30093822 31.51250691 -22.95493331 32.50600718 -25.625 34.125 C-28.04247089 35.55317819 -28.04247089 35.55317819 -30 37 C-30 37.66 -30 38.32 -30 39 C-30.66 39 -31.32 39 -32 39 C-32 39.66 -32 40.32 -32 41 C-32.99 41 -33.98 41 -35 41 C-34.01 41.66 -33.02 42.32 -32 43 C-32.61875 43.12375 -33.2375 43.2475 -33.875 43.375 C-36.9707751 44.28552209 -38.13670544 46.16404653 -40.1875 48.625 C-43 51 -43 51 -46.8125 51.3125 C-47.864375 51.209375 -48.91625 51.10625 -50 51 C-50.33 52.65 -50.66 54.3 -51 56 C-52.65 56 -54.3 56 -56 56 C-56.33 56.66 -56.66 57.32 -57 58 C-58.66666667 58 -60.33333333 58 -62 58 C-62 58.66 -62 59.32 -62 60 C-63.13888672 59.98259766 -63.13888672 59.98259766 -64.30078125 59.96484375 C-65.29464844 59.95582031 -66.28851563 59.94679688 -67.3125 59.9375 C-68.29863281 59.92589844 -69.28476563 59.91429687 -70.30078125 59.90234375 C-73.09963849 59.87670138 -73.09963849 59.87670138 -76 61 C-76.33 60.34 -76.66 59.68 -77 59 C-78.32 59 -79.64 59 -81 59 C-81.495 57.515 -81.495 57.515 -82 56 C-79.37801226 53.84622436 -77.35595828 52.59927826 -74 52 C-74 52.66 -74 53.32 -74 54 C-71.84166757 51.91866815 -71.84166757 51.91866815 -69.625 49 C-66.17647059 45.05882353 -66.17647059 45.05882353 -63 44 C-62.01 44 -61.02 44 -60 44 C-58.65080468 42.34614767 -57.31866272 40.678298 -56 39 C-52.94024557 36.99203616 -51.85514114 37 -48 37 C-47.67 35.68 -47.34 34.36 -47 33 C-46.34 33 -45.68 33 -45 33 C-45 33.99 -45 34.98 -45 36 C-44.34 36 -43.68 36 -43 36 C-42.67 33.69 -42.34 31.38 -42 29 C-40.68 29.33 -39.36 29.66 -38 30 C-38 29.34 -38 28.68 -38 28 C-34.53846154 25 -34.53846154 25 -32 25 C-32.495 23.515 -32.495 23.515 -33 22 C-32.360625 21.87625 -31.72125 21.7525 -31.0625 21.625 C-30.381875 21.41875 -29.70125 21.2125 -29 21 C-28.34145573 19.68291146 -27.71522568 18.34908726 -27.125 17 C-26 15 -26 15 -23 13 C-22.360625 12.46375 -21.72125 11.9275 -21.0625 11.375 C-19 10 -19 10 -15 10 C-14.67 9.34 -14.34 8.68 -14 8 C-12.01276732 7.29618843 -10.01222047 6.6288189 -8 6 C-6.7018576 4.8509288 -6.7018576 4.8509288 -6 2 C-5.195625 1.855625 -4.39125 1.71125 -3.5625 1.5625 C-1.07896294 1.25864751 -1.07896294 1.25864751 0 0 Z " fill="#F08079" transform="translate(119,231)"/>
<path d="M0 0 C0.33 0 0.66 0 1 0 C1 6.27 1 12.54 1 19 C0.34 19 -0.32 19 -1 19 C-1.66 19.66 -2.32 20.32 -3 21 C-3.99 21 -4.98 21 -6 21 C-6.495 22.485 -6.495 22.485 -7 24 C-10.50825987 27.40802387 -13.14562001 28.54842977 -18 29 C-18 29.99 -18 30.98 -18 32 C-19.32 32.33 -20.64 32.66 -22 33 C-22 33.66 -22 34.32 -22 35 C-25.465 35.495 -25.465 35.495 -29 36 C-29.66 37.65 -30.32 39.3 -31 41 C-31.99 40.67 -32.98 40.34 -34 40 C-34 40.99 -34 41.98 -34 43 C-34.763125 43.226875 -35.52625 43.45375 -36.3125 43.6875 C-39.61325079 45.29949457 -40.26149935 46.82534664 -42 50 C-43.29579647 51.36984198 -44.61992749 52.7151049 -46 54 C-46.33 53.67 -46.66 53.34 -47 53 C-47.268125 53.763125 -47.53625 54.52625 -47.8125 55.3125 C-48.9717361 57.93603434 -49.75255646 59.27119728 -52 61 C-52.680625 61.144375 -53.36125 61.28875 -54.0625 61.4375 C-56.21173571 61.82450832 -56.21173571 61.82450832 -57.25 64.0625 C-57.4975 64.701875 -57.745 65.34125 -58 66 C-58.66 66 -59.32 66 -60 66 C-60.33 66.66 -60.66 67.32 -61 68 C-62.32295768 69.32295768 -63.65621227 70.63570564 -65 71.9375 C-67.15272622 74.03299641 -67.15272622 74.03299641 -69 77 C-69.99 77.495 -69.99 77.495 -71 78 C-71.28875 78.639375 -71.5775 79.27875 -71.875 79.9375 C-73.25420005 82.46603342 -74.48167934 82.74083967 -77 84 C-78.13350534 86.01669827 -78.13350534 86.01669827 -79 88 C-79.18175781 87.20335937 -79.36351562 86.40671875 -79.55078125 85.5859375 C-80.8736021 80.00973884 -82.20883578 75.05067811 -85 70 C-85 69.34 -85 68.68 -85 68 C-83.1746875 67.9071875 -83.1746875 67.9071875 -81.3125 67.8125 C-77.75787563 67.38316704 -76.95401514 66.9626373 -74 64.5625 C-71.79490971 62.27899489 -71.79490971 62.27899489 -72 60 C-69.525 59.505 -69.525 59.505 -67 59 C-66.7525 58.05125 -66.505 57.1025 -66.25 56.125 C-64.78437872 52.46094681 -64.31793111 52.61611405 -61 51 C-59.33541491 49.29242177 -59.33541491 49.29242177 -57.875 47.375 C-56.3671875 45.4609375 -56.3671875 45.4609375 -55 44 C-54.34 44 -53.68 44 -53 44 C-52.34 43.34 -51.68 42.68 -51 42 C-50.67 41.67 -50.34 41.34 -50 41 C-49.360625 40.34 -48.72125 39.68 -48.0625 39 C-46 37 -46 37 -44 36 C-42.31183067 34.35511706 -40.64646685 32.68662458 -39 31 C-37.33333333 29.33333333 -35.66666667 27.66666667 -34 26 C-33.278125 25.154375 -32.55625 24.30875 -31.8125 23.4375 C-28.47488179 20.54489755 -26.33946492 20.25526264 -22 20 C-21.505 18.515 -21.505 18.515 -21 17 C-20.01 16.505 -20.01 16.505 -19 16 C-18.21625 15.13375 -17.4325 14.2675 -16.625 13.375 C-15.75875 12.59125 -14.8925 11.8075 -14 11 C-11.9375 11.3125 -11.9375 11.3125 -10 12 C-7.93330603 11.09166275 -7.93330603 11.09166275 -6 10 C-5.01 10 -4.02 10 -3 10 C-3 7.69 -3 5.38 -3 3 C-2.34 3 -1.68 3 -1 3 C-0.67 2.01 -0.34 1.02 0 0 Z " fill="#F07F7A" transform="translate(308,86)"/>
<path d="M0 0 C0.99 0.33 1.98 0.66 3 1 C4.2710735 4.16678884 4.10265074 7.37733787 4.0625 10.75 C4.05347656 11.73484375 4.04445313 12.7196875 4.03515625 13.734375 C4.02355469 14.48203125 4.01195312 15.2296875 4 16 C3 14 2 12 1 10 C0.67 10 0.34 10 0 10 C-0.33 10.99 -0.66 11.98 -1 13 C-3.04695631 15.04695631 -6.23453303 15.85181731 -8.87109375 16.96484375 C-11.14496379 17.92715727 -11.14496379 17.92715727 -13 20 C-13.33 19.67 -13.66 19.34 -14 19 C-14.226875 19.61875 -14.45375 20.2375 -14.6875 20.875 C-16.37929835 23.61410209 -17.99244161 24.05024472 -21 25 C-21 25.66 -21 26.32 -21 27 C-21.66 27 -22.32 27 -23 27 C-23.33 27.66 -23.66 28.32 -24 29 C-24.66 29 -25.32 29 -26 29 C-26.66 30.32 -27.32 31.64 -28 33 C-28.99 33 -29.98 33 -31 33 C-32.60907108 35.37612865 -32.60907108 35.37612865 -34 38 C-34.66 38.66 -35.32 39.32 -36 40 C-36.99 40 -37.98 40 -39 40 C-40.25828509 41.64216416 -40.25828509 41.64216416 -41.3125 43.75 C-43.63346035 47.73980797 -46.07887762 49.52798807 -50 52 C-51.04892238 53.63631892 -52.04906703 55.30485863 -53 57 C-57.36170213 61.68085106 -57.36170213 61.68085106 -60 63 C-60 63.66 -60 64.32 -60 65 C-60.8971875 65.309375 -60.8971875 65.309375 -61.8125 65.625 C-64.81018767 67.50926082 -65.61361776 69.81132084 -67 73 C-67.66 73 -68.32 73 -69 73 C-69.185625 73.70125 -69.37125 74.4025 -69.5625 75.125 C-71.27246743 78.54493485 -73.31082383 80.08216007 -76.24609375 82.44140625 C-78.76152355 84.67672137 -80.2852499 87.11921984 -82 90 C-82 86.83769773 -81.45357413 85.49496138 -80.125 82.6875 C-78.50835935 79.17904583 -77.13792994 75.69827231 -76 72 C-75.34 72.33 -74.68 72.66 -74 73 C-73.89042969 72.36191406 -73.78085938 71.72382813 -73.66796875 71.06640625 C-73.50941406 70.24011719 -73.35085937 69.41382813 -73.1875 68.5625 C-73.03667969 67.73878906 -72.88585937 66.91507812 -72.73046875 66.06640625 C-72.48941406 65.38449219 -72.24835938 64.70257813 -72 64 C-70.515 63.505 -70.515 63.505 -69 63 C-68.67 63.33 -68.34 63.66 -68 64 C-67.401875 62.88625 -66.80375 61.7725 -66.1875 60.625 C-64.62304383 57.71187472 -63.90092502 56.93395001 -61 55 C-60.87625 54.401875 -60.7525 53.80375 -60.625 53.1875 C-59.67564833 49.86476915 -57.54716357 48.24392981 -55 46 C-53.515 45.505 -53.515 45.505 -52 45 C-51.30062468 43.68352881 -50.63270867 42.34977849 -50 41 C-48.66666667 40.33333333 -47.33333333 39.66666667 -46 39 C-44.97139239 37.04475249 -44.97139239 37.04475249 -44.3125 35.0625 C-42.42244573 32.09241471 -40.23022288 31.2525354 -37 30 C-36.01 30.33 -35.02 30.66 -34 31 C-33.9175 30.071875 -33.835 29.14375 -33.75 28.1875 C-33 25 -33 25 -31.0625 23.125 C-29 22 -29 22 -27 22 C-26.731875 21.401875 -26.46375 20.80375 -26.1875 20.1875 C-24.15957937 16.45185674 -21.83563163 14.73222073 -18 13 C-15.83364126 12.13895422 -15.83364126 12.13895422 -14.75 9.9375 C-13 8 -13 8 -9.8125 7.75 C-8.4203125 7.87375 -8.4203125 7.87375 -7 8 C-6.67 7.01 -6.34 6.02 -6 5 C-5.505 5.99 -5.505 5.99 -5 7 C-4.54625 6.175 -4.0925 5.35 -3.625 4.5 C-3.08875 3.675 -2.5525 2.85 -2 2 C-1.34 2 -0.68 2 0 2 C0 1.34 0 0.68 0 0 Z " fill="#E67190" transform="translate(304,121)"/>
<path d="M0 0 C0.495 1.485 0.495 1.485 1 3 C0.01 3.33 -0.98 3.66 -2 4 C-2.66 4.66 -3.32 5.32 -4 6 C-5.66666667 6.33333333 -7.33333333 6.66666667 -9 7 C-9.66 7.66 -10.32 8.32 -11 9 C-11.66 9 -12.32 9 -13 9 C-13.66 9.66 -14.32 10.32 -15 11 C-16.66321482 11.35015049 -18.33034549 11.68197057 -20 12 C-21.34090759 12.65129797 -22.67592331 13.31513275 -24 14 C-24.66 14 -25.32 14 -26 14 C-26 15.32 -26 16.64 -26 18 C-28.25660504 19.60337726 -30.53164435 20.76582217 -33 22 C-33.495 23.485 -33.495 23.485 -34 25 C-34.66 25 -35.32 25 -36 25 C-36.2475 25.5775 -36.495 26.155 -36.75 26.75 C-38.17288843 29.31119917 -39.9333048 30.9333048 -42 33 C-42.495 33.9075 -42.99 34.815 -43.5 35.75 C-43.995 36.4925 -44.49 37.235 -45 38 C-46.32 38 -47.64 38 -49 38 C-49.268125 38.721875 -49.53625 39.44375 -49.8125 40.1875 C-50.98982498 42.97590126 -52.39145884 45.44095724 -54 48 C-52.515 48.495 -52.515 48.495 -51 49 C-51 49.66 -51 50.32 -51 51 C-49.68 51.33 -48.36 51.66 -47 52 C-47.68707031 51.98839844 -48.37414062 51.97679687 -49.08203125 51.96484375 C-49.98308594 51.95582031 -50.88414063 51.94679688 -51.8125 51.9375 C-52.70582031 51.92589844 -53.59914063 51.91429687 -54.51953125 51.90234375 C-57.13413791 51.88990033 -57.13413791 51.88990033 -60 53 C-61.67476472 52.71008275 -63.34120087 52.3705055 -65 52 C-66.93502491 51.78847906 -68.87283455 51.60108624 -70.8125 51.4375 C-71.78832031 51.35371094 -72.76414062 51.26992188 -73.76953125 51.18359375 C-74.87361328 51.09271484 -74.87361328 51.09271484 -76 51 C-76 50.01 -76 49.02 -76 48 C-75.34 48 -74.68 48 -74 48 C-73.67 47.34 -73.34 46.68 -73 46 C-72.67 46.33 -72.34 46.66 -72 47 C-71.34 45.68 -70.68 44.36 -70 43 C-69.67 43.66 -69.34 44.32 -69 45 C-68.01 44.505 -68.01 44.505 -67 44 C-67.33 43.34 -67.66 42.68 -68 42 C-66.7934375 41.6596875 -66.7934375 41.6596875 -65.5625 41.3125 C-64.716875 40.879375 -63.87125 40.44625 -63 40 C-62.10613836 37.45224694 -62.10613836 37.45224694 -62 35 C-61.34 35.33 -60.68 35.66 -60 36 C-59.34 35.34 -58.68 34.68 -58 34 C-57.01 33.505 -57.01 33.505 -56 33 C-55.67 32.34 -55.34 31.68 -55 31 C-54.175 30.731875 -53.35 30.46375 -52.5 30.1875 C-51.675 29.795625 -50.85 29.40375 -50 29 C-49.10613836 26.45224694 -49.10613836 26.45224694 -49 24 C-47.68 24 -46.36 24 -45 24 C-44.34 23.01 -43.68 22.02 -43 21 C-42.34 21 -41.68 21 -41 21 C-40.731875 20.360625 -40.46375 19.72125 -40.1875 19.0625 C-39 17 -39 17 -36 16 C-36 16.66 -36 17.32 -36 18 C-35.34 18 -34.68 18 -34 18 C-34 16.68 -34 15.36 -34 14 C-33.34 14 -32.68 14 -32 14 C-32.495 12.515 -32.495 12.515 -33 11 C-31.0625 10.4375 -31.0625 10.4375 -29 10 C-28.505 10.495 -28.505 10.495 -28 11 C-27.34 9.68 -26.68 8.36 -26 7 C-24.68 7 -23.36 7 -22 7 C-21.34 6.34 -20.68 5.68 -20 5 C-14.48615529 2.51639322 -8.96540332 1.59960947 -2.96875 1.2109375 C-0.99898644 1.20823726 -0.99898644 1.20823726 0 0 Z " fill="#E67291" transform="translate(163,239)"/>
<path d="M0 0 C4.82857454 4.02381212 8.26844608 7.94735196 9.625 14.1875 C9.1640625 16.3671875 9.1640625 16.3671875 8.625 18.1875 C8.38265625 17.52363281 8.1403125 16.85976562 7.890625 16.17578125 C5.24140499 9.09407202 5.24140499 9.09407202 0.625 3.1875 C-1.43425139 2.46367533 -1.43425139 2.46367533 -3.375 2.1875 C-4.035 1.5275 -4.695 0.8675 -5.375 0.1875 C-7.89249828 0.03981087 -7.89249828 0.03981087 -10.375 1.1875 C-11.4400015 3.15365661 -12.44333174 5.15476926 -13.375 7.1875 C-14.365 7.5175 -15.355 7.8475 -16.375 8.1875 C-17.035 7.8575 -17.695 7.5275 -18.375 7.1875 C-20.355 8.5075 -22.335 9.8275 -24.375 11.1875 C-25.035 10.8575 -25.695 10.5275 -26.375 10.1875 C-26.705 11.1775 -27.035 12.1675 -27.375 13.1875 C-28.035 12.8575 -28.695 12.5275 -29.375 12.1875 C-30.695 13.5075 -32.015 14.8275 -33.375 16.1875 C-33.375 15.5275 -33.375 14.8675 -33.375 14.1875 C-34.035 14.1875 -34.695 14.1875 -35.375 14.1875 C-35.045 15.1775 -34.715 16.1675 -34.375 17.1875 C-35.035 17.1875 -35.695 17.1875 -36.375 17.1875 C-36.045 18.1775 -35.715 19.1675 -35.375 20.1875 C-36.695 19.5275 -38.015 18.8675 -39.375 18.1875 C-39.705 19.8375 -40.035 21.4875 -40.375 23.1875 C-39.385 23.8475 -38.395 24.5075 -37.375 25.1875 C-37.375 25.8475 -37.375 26.5075 -37.375 27.1875 C-41.22813152 25.67376976 -43.20535522 23.70382085 -45.375 20.1875 C-46.76051652 15.5632283 -46.87352272 11.48614156 -45 7 C-41.82018197 1.54421633 -36.8141227 -1.69128131 -30.8828125 -3.625 C-20.1325721 -6.03626887 -9.81508937 -5.27106652 0 0 Z " fill="#FEB827" transform="translate(180.375,89.8125)"/>
<path d="M0 0 C0.66 0 1.32 0 2 0 C2.01030746 0.55043976 2.02061493 1.10087952 2.03123474 1.66799927 C2.1396417 7.41094014 2.25421051 13.15373491 2.37231445 18.89648438 C2.41555396 21.03805476 2.45723656 23.17965718 2.49731445 25.32128906 C2.55528371 28.40439496 2.61890079 31.48734124 2.68359375 34.5703125 C2.70030624 35.52366486 2.71701874 36.47701721 2.73423767 37.45925903 C2.83658048 42.07980027 3.13755655 46.44619335 4 51 C4 54 4 54 2 57 C-0.85567224 54.14432776 -0.07397461 46.54955944 -0.11352539 42.68554688 C-0.11336897 40.69660756 -0.10783355 38.70766329 -0.09765625 36.71875 C-0.0962413 35.66465942 -0.09482635 34.61056885 -0.09336853 33.52453613 C-0.08780508 30.18299429 -0.07525941 26.84152133 -0.0625 23.5 C-0.05748027 21.22395931 -0.0529182 18.94791755 -0.04882812 16.671875 C-0.03784764 11.11456013 -0.02114622 5.55728499 0 0 Z " fill="#F9BE39" transform="translate(3,161)"/>
<path d="M0 0 C-4.1196377 1.29243536 -7.66831683 2.26252625 -12 2 C-12 2.66 -12 3.32 -12 4 C-18.48708411 4.88370974 -24.53919765 5.00278495 -31.0625 4.5625 C-32.3609082 4.48418945 -32.3609082 4.48418945 -33.68554688 4.40429688 C-35.79079032 4.2763539 -37.89546828 4.13916029 -40 4 C-40 3.67 -40 3.34 -40 3 C-39.33581055 2.9498877 -38.67162109 2.89977539 -37.98730469 2.84814453 C-21.99025765 1.75486555 -21.99025765 1.75486555 -6.171875 -0.73046875 C-3.82960308 -1.02114638 -2.23081162 -0.7214322 0 0 Z " fill="#E55776" transform="translate(189,234)"/>
<path d="M0 0 C7.38772597 -0.56586837 13.55690612 0.13630216 20 4 C24.44787256 7.86414068 27.92351287 12.07932077 29 18 C28.71004998 19.3434351 28.38352354 20.68022783 28 22 C27.75765625 21.33613281 27.5153125 20.67226562 27.265625 19.98828125 C24.61640499 12.90657202 24.61640499 12.90657202 20 7 C17.94074861 6.27617533 17.94074861 6.27617533 16 6 C15.34 5.34 14.68 4.68 14 4 C9.37339673 2.45779891 4.83461589 1.59199378 0 1 C0 0.67 0 0.34 0 0 Z " fill="#FEA30F" transform="translate(161,86)"/>
<path d="M0 0 C-1.65 0.33 -3.3 0.66 -5 1 C-5.33 1.99 -5.66 2.98 -6 4 C-7.95689037 4.36205464 -9.91557668 4.71441421 -11.875 5.0625 C-12.96554688 5.25972656 -14.05609375 5.45695313 -15.1796875 5.66015625 C-18 6 -18 6 -20 5 C-20 4.34 -20 3.68 -20 3 C-14.06 2.505 -14.06 2.505 -8 2 C-8 1.34 -8 0.68 -8 0 C-4.71303767 -0.79953138 -3.28976808 -1.09658936 0 0 Z " fill="#E77290" transform="translate(185,236)"/>
<path d="M0 0 C0.89203125 0.19464844 1.7840625 0.38929688 2.703125 0.58984375 C3.37859375 0.74582031 4.0540625 0.90179688 4.75 1.0625 C5.08 0.4025 5.41 -0.2575 5.75 -0.9375 C6.41 -0.9375 7.07 -0.9375 7.75 -0.9375 C7.75 0.0525 7.75 1.0425 7.75 2.0625 C1.81390334 2.95566269 -3.31975197 3.03290422 -9.25 2.0625 C-9.25 1.4025 -9.25 0.7425 -9.25 0.0625 C-5.84598052 -1.07482426 -3.47543336 -0.77739957 0 0 Z " fill="#E0678C" transform="translate(121.25,287.9375)"/>
<path d="M0 0 C1.65 0.99 3.3 1.98 5 3 C3 6 3 6 0.375 6.6875 C-0.800625 6.8421875 -0.800625 6.8421875 -2 7 C-2.33 5.35 -2.66 3.7 -3 2 C-2.01 1.34 -1.02 0.68 0 0 Z " fill="#FFB62E" transform="translate(70,152)"/>
<path d="M0 0 C4.56454251 0.54339792 7.9728176 1.79463821 12 4 C12 4.66 12 5.32 12 6 C10.68 6 9.36 6 8 6 C7.67 5.34 7.34 4.68 7 4 C5.68 4 4.36 4 3 4 C3 3.34 3 2.68 3 2 C2.01 2.33 1.02 2.66 0 3 C0 2.01 0 1.02 0 0 Z " fill="#FBB535" transform="translate(274,5)"/>
<path d="M0 0 C0.33 0.66 0.66 1.32 1 2 C2.65 1.67 4.3 1.34 6 1 C6 1.66 6 2.32 6 3 C7.32 3.33 8.64 3.66 10 4 C9.31292969 3.98839844 8.62585938 3.97679687 7.91796875 3.96484375 C7.01691406 3.95582031 6.11585937 3.94679688 5.1875 3.9375 C4.29417969 3.92589844 3.40085937 3.91429687 2.48046875 3.90234375 C-0.13413791 3.88990033 -0.13413791 3.88990033 -3 5 C-3.33 4.01 -3.66 3.02 -4 2 C-2.68 1.34 -1.36 0.68 0 0 Z " fill="#E67C88" transform="translate(106,287)"/>
<path d="M0 0 C0.33 0.66 0.66 1.32 1 2 C1.66 2.33 2.32 2.66 3 3 C1.8125 4.5 1.8125 4.5 0 6 C-2.6875 6.1875 -2.6875 6.1875 -5 6 C-3.86695008 2.60085025 -2.87481525 1.94745549 0 0 Z " fill="#FFB72D" transform="translate(20,186)"/>
<path d="M0 0 C5.28 0 10.56 0 16 0 C16 0.33 16 0.66 16 1 C15.26394531 1.06058594 14.52789062 1.12117187 13.76953125 1.18359375 C12.79371094 1.26738281 11.81789063 1.35117188 10.8125 1.4375 C9.84957031 1.51871094 8.88664062 1.59992187 7.89453125 1.68359375 C5.21350398 1.97666151 2.6337014 2.42703754 0 3 C0 2.01 0 1.02 0 0 Z " fill="#FAB535" transform="translate(258,4)"/>
<path d="M0 0 C2 1 2 1 2.8125 2.625 C3.10101195 6.27948467 1.57703229 8.71977284 0 12 C-0.33 12 -0.66 12 -1 12 C-1.14285714 3.42857143 -1.14285714 3.42857143 0 0 Z " fill="#EF8987" transform="translate(230,170)"/>
<path d="M0 0 C1.24546405 2.49092811 0.7767578 3.41080733 0 6 C-1.65 6 -3.3 6 -5 6 C-4.1875 3.5625 -4.1875 3.5625 -3 1 C-2.01 0.67 -1.02 0.34 0 0 Z " fill="#FFB62E" transform="translate(95,132)"/>
<path d="M0 0 C-0.8125 1.9375 -0.8125 1.9375 -2 4 C-2.99 4.33 -3.98 4.66 -5 5 C-5.33 3.68 -5.66 2.36 -6 1 C-3.92446352 0.4465236 -2.15634036 0 0 0 Z " fill="#FFB72D" transform="translate(273,15)"/>
<path d="M0 0 C7.75 0.75 7.75 0.75 10 3 C8.68 3.33 7.36 3.66 6 4 C6 3.34 6 2.68 6 2 C3.03 1.505 3.03 1.505 0 1 C0 0.67 0 0.34 0 0 Z " fill="#FD8F26" transform="translate(136,156)"/>
<path d="M0 0 C0.33 0.66 0.66 1.32 1 2 C0.34 1.67 -0.32 1.34 -1 1 C-0.67 0.67 -0.34 0.34 0 0 Z " fill="#F2A282" transform="translate(296,277)"/>
<path d="" fill="#F2A282" transform="translate(0,0)"/>
<path d="" fill="#F2A282" transform="translate(0,0)"/>
<path d="" fill="#F2A282" transform="translate(0,0)"/>
<path d="" fill="#F2A282" transform="translate(0,0)"/>
<path d="" fill="#F2A282" transform="translate(0,0)"/>
<path d="" fill="#F2A282" transform="translate(0,0)"/>
<path d="" fill="#F2A282" transform="translate(0,0)"/>
<path d="" fill="#F2A282" transform="translate(0,0)"/>
<path d="" fill="#F2A282" transform="translate(0,0)"/>
<path d="" fill="#F2A282" transform="translate(0,0)"/>
<path d="" fill="#F2A282" transform="translate(0,0)"/>
<path d="" fill="#F2A282" transform="translate(0,0)"/>
<path d="" fill="#F2A282" transform="translate(0,0)"/>
<path d="" fill="#F2A282" transform="translate(0,0)"/>
<path d="" fill="#F2A282" transform="translate(0,0)"/>
<path d="" fill="#F2A282" transform="translate(0,0)"/>
<path d="" fill="#F2A282" transform="translate(0,0)"/>
<path d="" fill="#F2A282" transform="translate(0,0)"/>
<path d="" fill="#F2A282" transform="translate(0,0)"/>
<path d="" fill="#F2A282" transform="translate(0,0)"/>
<path d="" fill="#F2A282" transform="translate(0,0)"/>
<path d="" fill="#F2A282" transform="translate(0,0)"/>
<path d="" fill="#F2A282" transform="translate(0,0)"/>
<path d="" fill="#F2A282" transform="translate(0,0)"/>
<path d="" fill="#F2A282" transform="translate(0,0)"/>
<path d="" fill="#F2A282" transform="translate(0,0)"/>
<path d="" fill="#F2A282" transform="translate(0,0)"/>
<path d="" fill="#F2A282" transform="translate(0,0)"/>
<path d="" fill="#F2A282" transform="translate(0,0)"/>
<path d="" fill="#F2A282" transform="translate(0,0)"/>
<path d="" fill="#F2A282" transform="translate(0,0)"/>
<path d="" fill="#F2A282" transform="translate(0,0)"/>
<path d="" fill="#F2A282" transform="translate(0,0)"/>
<path d="" fill="#F2A282" transform="translate(0,0)"/>
<path d="" fill="#F2A282" transform="translate(0,0)"/>
<path d="" fill="#F2A282" transform="translate(0,0)"/>
<path d="" fill="#F2A282" transform="translate(0,0)"/>
<path d="" fill="#F2A282" transform="translate(0,0)"/>
<path d="" fill="#F2A282" transform="translate(0,0)"/>
<path d="" fill="#F2A282" transform="translate(0,0)"/>
<path d="" fill="#F2A282" transform="translate(0,0)"/>
<path d="" fill="#F2A282" transform="translate(0,0)"/>
<path d="" fill="#F2A282" transform="translate(0,0)"/>
<path d="" fill="#F2A282" transform="translate(0,0)"/>
<path d="" fill="#F2A282" transform="translate(0,0)"/>
<path d="" fill="#F2A282" transform="translate(0,0)"/>
<path d="" fill="#F2A282" transform="translate(0,0)"/>
<path d="" fill="#F2A282" transform="translate(0,0)"/>
<path d="" fill="#F2A282" transform="translate(0,0)"/>
<path d="" fill="#F2A282" transform="translate(0,0)"/>
</svg>
